<svg width="1363" height="163" viewBox="0 0 1363 163" fill="none" xmlns="http://www.w3.org/2000/svg">
<path d="M0 15C0 6.71573 6.71573 0 15 0H37V163H15C6.71573 163 0 156.284 0 148V15Z" fill="#181C7D"/>
<rect width="1097" height="163" transform="translate(37)" fill="#F0F0F0"/>
<path d="M101.906 53.9219L94.3945 51.2383V48.0859L104.602 52.375V54.6367L101.906 53.9219ZM94.3945 56.1719L101.918 53.4297L104.602 52.7852V55.0352L94.3945 59.3242V56.1719ZM119.836 46.8555L115.195 61H111.457L117.797 43.9375H120.176L119.836 46.8555ZM123.691 61L119.039 46.8555L118.664 43.9375H121.066L127.441 61H123.691ZM123.48 54.6484V57.4023H114.469V54.6484H123.48ZM135.668 57.4961C135.668 57.2539 135.598 57.0352 135.457 56.8398C135.316 56.6445 135.055 56.4648 134.672 56.3008C134.297 56.1289 133.754 55.9727 133.043 55.832C132.402 55.6914 131.805 55.5156 131.25 55.3047C130.703 55.0859 130.227 54.8242 129.82 54.5195C129.422 54.2148 129.109 53.8555 128.883 53.4414C128.656 53.0195 128.543 52.5391 128.543 52C128.543 51.4688 128.656 50.9688 128.883 50.5C129.117 50.0312 129.449 49.6172 129.879 49.2578C130.316 48.8906 130.848 48.6055 131.473 48.4023C132.105 48.1914 132.816 48.0859 133.605 48.0859C134.707 48.0859 135.652 48.2617 136.441 48.6133C137.238 48.9648 137.848 49.4492 138.27 50.0664C138.699 50.6758 138.914 51.3711 138.914 52.1523H135.539C135.539 51.8242 135.469 51.5312 135.328 51.2734C135.195 51.0078 134.984 50.8008 134.695 50.6523C134.414 50.4961 134.047 50.418 133.594 50.418C133.219 50.418 132.895 50.4844 132.621 50.6172C132.348 50.7422 132.137 50.9141 131.988 51.1328C131.848 51.3438 131.777 51.5781 131.777 51.8359C131.777 52.0312 131.816 52.207 131.895 52.3633C131.98 52.5117 132.117 52.6484 132.305 52.7734C132.492 52.8984 132.734 53.0156 133.031 53.125C133.336 53.2266 133.711 53.3203 134.156 53.4062C135.07 53.5938 135.887 53.8398 136.605 54.1445C137.324 54.4414 137.895 54.8477 138.316 55.3633C138.738 55.8711 138.949 56.5391 138.949 57.3672C138.949 57.9297 138.824 58.4453 138.574 58.9141C138.324 59.3828 137.965 59.793 137.496 60.1445C137.027 60.4883 136.465 60.7578 135.809 60.9531C135.16 61.1406 134.43 61.2344 133.617 61.2344C132.438 61.2344 131.438 61.0234 130.617 60.6016C129.805 60.1797 129.188 59.6445 128.766 58.9961C128.352 58.3398 128.145 57.668 128.145 56.9805H131.344C131.359 57.4414 131.477 57.8125 131.695 58.0938C131.922 58.375 132.207 58.5781 132.551 58.7031C132.902 58.8281 133.281 58.8906 133.688 58.8906C134.125 58.8906 134.488 58.832 134.777 58.7148C135.066 58.5898 135.285 58.4258 135.434 58.2227C135.59 58.0117 135.668 57.7695 135.668 57.4961ZM147.996 57.4961C147.996 57.2539 147.926 57.0352 147.785 56.8398C147.645 56.6445 147.383 56.4648 147 56.3008C146.625 56.1289 146.082 55.9727 145.371 55.832C144.73 55.6914 144.133 55.5156 143.578 55.3047C143.031 55.0859 142.555 54.8242 142.148 54.5195C141.75 54.2148 141.438 53.8555 141.211 53.4414C140.984 53.0195 140.871 52.5391 140.871 52C140.871 51.4688 140.984 50.9688 141.211 50.5C141.445 50.0312 141.777 49.6172 142.207 49.2578C142.645 48.8906 143.176 48.6055 143.801 48.4023C144.434 48.1914 145.145 48.0859 145.934 48.0859C147.035 48.0859 147.98 48.2617 148.77 48.6133C149.566 48.9648 150.176 49.4492 150.598 50.0664C151.027 50.6758 151.242 51.3711 151.242 52.1523H147.867C147.867 51.8242 147.797 51.5312 147.656 51.2734C147.523 51.0078 147.312 50.8008 147.023 50.6523C146.742 50.4961 146.375 50.418 145.922 50.418C145.547 50.418 145.223 50.4844 144.949 50.6172C144.676 50.7422 144.465 50.9141 144.316 51.1328C144.176 51.3438 144.105 51.5781 144.105 51.8359C144.105 52.0312 144.145 52.207 144.223 52.3633C144.309 52.5117 144.445 52.6484 144.633 52.7734C144.82 52.8984 145.062 53.0156 145.359 53.125C145.664 53.2266 146.039 53.3203 146.484 53.4062C147.398 53.5938 148.215 53.8398 148.934 54.1445C149.652 54.4414 150.223 54.8477 150.645 55.3633C151.066 55.8711 151.277 56.5391 151.277 57.3672C151.277 57.9297 151.152 58.4453 150.902 58.9141C150.652 59.3828 150.293 59.793 149.824 60.1445C149.355 60.4883 148.793 60.7578 148.137 60.9531C147.488 61.1406 146.758 61.2344 145.945 61.2344C144.766 61.2344 143.766 61.0234 142.945 60.6016C142.133 60.1797 141.516 59.6445 141.094 58.9961C140.68 58.3398 140.473 57.668 140.473 56.9805H143.672C143.688 57.4414 143.805 57.8125 144.023 58.0938C144.25 58.375 144.535 58.5781 144.879 58.7031C145.23 58.8281 145.609 58.8906 146.016 58.8906C146.453 58.8906 146.816 58.832 147.105 58.7148C147.395 58.5898 147.613 58.4258 147.762 58.2227C147.918 58.0117 147.996 57.7695 147.996 57.4961ZM160.969 57.9648V48.3203H164.344V61H161.168L160.969 57.9648ZM161.344 55.3633L162.34 55.3398C162.34 56.1836 162.242 56.9688 162.047 57.6953C161.852 58.4141 161.559 59.0391 161.168 59.5703C160.777 60.0938 160.285 60.5039 159.691 60.8008C159.098 61.0898 158.398 61.2344 157.594 61.2344C156.977 61.2344 156.406 61.1484 155.883 60.9766C155.367 60.7969 154.922 60.5195 154.547 60.1445C154.18 59.7617 153.891 59.2734 153.68 58.6797C153.477 58.0781 153.375 57.3555 153.375 56.5117V48.3203H156.75V56.5352C156.75 56.9102 156.793 57.2266 156.879 57.4844C156.973 57.7422 157.102 57.9531 157.266 58.1172C157.43 58.2812 157.621 58.3984 157.84 58.4688C158.066 58.5391 158.316 58.5742 158.59 58.5742C159.285 58.5742 159.832 58.4336 160.23 58.1523C160.637 57.8711 160.922 57.4883 161.086 57.0039C161.258 56.5117 161.344 55.9648 161.344 55.3633ZM170.297 51.0859V61H166.922V48.3203H170.098L170.297 51.0859ZM174.117 48.2383L174.059 51.3672C173.895 51.3438 173.695 51.3242 173.461 51.3086C173.234 51.2852 173.027 51.2734 172.84 51.2734C172.363 51.2734 171.949 51.3359 171.598 51.4609C171.254 51.5781 170.965 51.7539 170.73 51.9883C170.504 52.2227 170.332 52.5078 170.215 52.8438C170.105 53.1797 170.043 53.5625 170.027 53.9922L169.348 53.7812C169.348 52.9609 169.43 52.207 169.594 51.5195C169.758 50.8242 169.996 50.2188 170.309 49.7031C170.629 49.1875 171.02 48.7891 171.48 48.5078C171.941 48.2266 172.469 48.0859 173.062 48.0859C173.25 48.0859 173.441 48.1016 173.637 48.1328C173.832 48.1562 173.992 48.1914 174.117 48.2383ZM181.312 61.2344C180.328 61.2344 179.445 61.0781 178.664 60.7656C177.883 60.4453 177.219 60.0039 176.672 59.4414C176.133 58.8789 175.719 58.2266 175.43 57.4844C175.141 56.7344 174.996 55.9375 174.996 55.0938V54.625C174.996 53.6641 175.133 52.7852 175.406 51.9883C175.68 51.1914 176.07 50.5 176.578 49.9141C177.094 49.3281 177.719 48.8789 178.453 48.5664C179.188 48.2461 180.016 48.0859 180.938 48.0859C181.836 48.0859 182.633 48.2344 183.328 48.5312C184.023 48.8281 184.605 49.25 185.074 49.7969C185.551 50.3438 185.91 51 186.152 51.7656C186.395 52.5234 186.516 53.3672 186.516 54.2969V55.7031H176.438V53.4531H183.199V53.1953C183.199 52.7266 183.113 52.3086 182.941 51.9414C182.777 51.5664 182.527 51.2695 182.191 51.0508C181.855 50.832 181.426 50.7227 180.902 50.7227C180.457 50.7227 180.074 50.8203 179.754 51.0156C179.434 51.2109 179.172 51.4844 178.969 51.8359C178.773 52.1875 178.625 52.6016 178.523 53.0781C178.43 53.5469 178.383 54.0625 178.383 54.625V55.0938C178.383 55.6016 178.453 56.0703 178.594 56.5C178.742 56.9297 178.949 57.3008 179.215 57.6133C179.488 57.9258 179.816 58.168 180.199 58.3398C180.59 58.5117 181.031 58.5977 181.523 58.5977C182.133 58.5977 182.699 58.4805 183.223 58.2461C183.754 58.0039 184.211 57.6406 184.594 57.1562L186.234 58.9375C185.969 59.3203 185.605 59.6875 185.145 60.0391C184.691 60.3906 184.145 60.6797 183.504 60.9062C182.863 61.125 182.133 61.2344 181.312 61.2344ZM199.617 58.2578V61H191.027V58.2578H199.617ZM192.164 43.9375V61H188.648V43.9375H192.164ZM204.984 48.3203V61H201.598V48.3203H204.984ZM201.387 45.0156C201.387 44.5234 201.559 44.1172 201.902 43.7969C202.246 43.4766 202.707 43.3164 203.285 43.3164C203.855 43.3164 204.312 43.4766 204.656 43.7969C205.008 44.1172 205.184 44.5234 205.184 45.0156C205.184 45.5078 205.008 45.9141 204.656 46.2344C204.312 46.5547 203.855 46.7148 203.285 46.7148C202.707 46.7148 202.246 46.5547 201.902 46.2344C201.559 45.9141 201.387 45.5078 201.387 45.0156ZM211.078 51.0273V61H207.703V48.3203H210.867L211.078 51.0273ZM210.586 54.2148H209.672C209.672 53.2773 209.793 52.4336 210.035 51.6836C210.277 50.9258 210.617 50.2812 211.055 49.75C211.492 49.2109 212.012 48.8008 212.613 48.5195C213.223 48.2305 213.902 48.0859 214.652 48.0859C215.246 48.0859 215.789 48.1719 216.281 48.3438C216.773 48.5156 217.195 48.7891 217.547 49.1641C217.906 49.5391 218.18 50.0352 218.367 50.6523C218.562 51.2695 218.66 52.0234 218.66 52.9141V61H215.262V52.9023C215.262 52.3398 215.184 51.9023 215.027 51.5898C214.871 51.2773 214.641 51.0586 214.336 50.9336C214.039 50.8008 213.672 50.7344 213.234 50.7344C212.781 50.7344 212.387 50.8242 212.051 51.0039C211.723 51.1836 211.449 51.4336 211.23 51.7539C211.02 52.0664 210.859 52.4336 210.75 52.8555C210.641 53.2773 210.586 53.7305 210.586 54.2148ZM224.602 42.9883V61H221.227V42.9883H224.602ZM232.594 48.3203L227.086 54.6016L224.133 57.5898L222.902 55.1523L225.246 52.1758L228.539 48.3203H232.594ZM229.09 61L225.34 55.1406L227.672 53.1016L232.98 61H229.09Z" fill="#888888"/>
<path d="M104.344 84.875V119H96.1406V84.875H104.344ZM117.727 99.0078V119H109.828V93.6406H117.234L117.727 99.0078ZM116.766 105.453L114.961 105.5C114.961 103.719 115.172 102.078 115.594 100.578C116.016 99.0781 116.641 97.7734 117.469 96.6641C118.297 95.5547 119.312 94.6953 120.516 94.0859C121.734 93.4766 123.141 93.1719 124.734 93.1719C125.844 93.1719 126.852 93.3438 127.758 93.6875C128.664 94.0156 129.445 94.5391 130.102 95.2578C130.758 95.9609 131.258 96.8828 131.602 98.0234C131.961 99.1484 132.141 100.5 132.141 102.078V119H124.242V103.086C124.242 102.008 124.117 101.195 123.867 100.648C123.633 100.102 123.289 99.7344 122.836 99.5469C122.383 99.3594 121.828 99.2656 121.172 99.2656C120.484 99.2656 119.867 99.4219 119.32 99.7344C118.773 100.047 118.305 100.484 117.914 101.047C117.539 101.594 117.25 102.242 117.047 102.992C116.859 103.742 116.766 104.562 116.766 105.453ZM131.25 105.453L129.047 105.5C129.047 103.719 129.242 102.078 129.633 100.578C130.039 99.0781 130.641 97.7734 131.438 96.6641C132.25 95.5547 133.258 94.6953 134.461 94.0859C135.664 93.4766 137.062 93.1719 138.656 93.1719C139.812 93.1719 140.875 93.3438 141.844 93.6875C142.812 94.0312 143.648 94.5859 144.352 95.3516C145.055 96.1172 145.602 97.1328 145.992 98.3984C146.383 99.6484 146.578 101.195 146.578 103.039V119H138.656V103.039C138.656 101.992 138.531 101.203 138.281 100.672C138.047 100.125 137.703 99.7578 137.25 99.5703C136.797 99.3672 136.258 99.2656 135.633 99.2656C134.883 99.2656 134.234 99.4219 133.688 99.7344C133.141 100.047 132.68 100.484 132.305 101.047C131.945 101.594 131.68 102.242 131.508 102.992C131.336 103.742 131.25 104.562 131.25 105.453ZM159.07 98.5156V128.75H151.172V93.6406H158.531L159.07 98.5156ZM174.633 106.016V106.508C174.633 108.352 174.422 110.062 174 111.641C173.578 113.219 172.953 114.594 172.125 115.766C171.297 116.938 170.266 117.852 169.031 118.508C167.812 119.148 166.398 119.469 164.789 119.469C163.273 119.469 161.969 119.133 160.875 118.461C159.781 117.789 158.867 116.859 158.133 115.672C157.398 114.484 156.805 113.125 156.352 111.594C155.898 110.062 155.539 108.445 155.273 106.742V106.109C155.539 104.281 155.898 102.586 156.352 101.023C156.805 99.4453 157.398 98.0703 158.133 96.8984C158.867 95.7266 159.773 94.8125 160.852 94.1562C161.945 93.5 163.25 93.1719 164.766 93.1719C166.375 93.1719 167.789 93.4766 169.008 94.0859C170.242 94.6953 171.273 95.5703 172.102 96.7109C172.945 97.8359 173.578 99.1875 174 100.766C174.422 102.344 174.633 104.094 174.633 106.016ZM166.734 106.508V106.016C166.734 105.031 166.664 104.133 166.523 103.32C166.383 102.492 166.156 101.773 165.844 101.164C165.547 100.555 165.148 100.086 164.648 99.7578C164.148 99.4297 163.531 99.2656 162.797 99.2656C161.953 99.2656 161.242 99.3984 160.664 99.6641C160.102 99.9141 159.648 100.305 159.305 100.836C158.977 101.352 158.742 102 158.602 102.781C158.477 103.547 158.422 104.445 158.438 105.477V107.398C158.406 108.586 158.523 109.633 158.789 110.539C159.055 111.43 159.516 112.125 160.172 112.625C160.828 113.125 161.719 113.375 162.844 113.375C163.594 113.375 164.219 113.203 164.719 112.859C165.219 112.5 165.617 112.008 165.914 111.383C166.211 110.742 166.422 110.008 166.547 109.18C166.672 108.352 166.734 107.461 166.734 106.508ZM186.492 83V119H178.57V83H186.492ZM203.648 119.469C201.586 119.469 199.742 119.148 198.117 118.508C196.492 117.852 195.117 116.953 193.992 115.812C192.883 114.672 192.031 113.359 191.438 111.875C190.859 110.391 190.57 108.82 190.57 107.164V106.273C190.57 104.414 190.828 102.695 191.344 101.117C191.859 99.5234 192.625 98.1328 193.641 96.9453C194.656 95.7578 195.93 94.8359 197.461 94.1797C198.992 93.5078 200.773 93.1719 202.805 93.1719C204.602 93.1719 206.211 93.4609 207.633 94.0391C209.055 94.6172 210.258 95.4453 211.242 96.5234C212.242 97.6016 213 98.9062 213.516 100.438C214.047 101.969 214.312 103.688 214.312 105.594V108.805H193.594V103.859H206.602V103.25C206.617 102.406 206.469 101.688 206.156 101.094C205.859 100.5 205.422 100.047 204.844 99.7344C204.266 99.4219 203.562 99.2656 202.734 99.2656C201.875 99.2656 201.164 99.4531 200.602 99.8281C200.055 100.203 199.625 100.719 199.312 101.375C199.016 102.016 198.805 102.758 198.68 103.602C198.555 104.445 198.492 105.336 198.492 106.273V107.164C198.492 108.102 198.617 108.953 198.867 109.719C199.133 110.484 199.508 111.141 199.992 111.688C200.492 112.219 201.086 112.633 201.773 112.93C202.477 113.227 203.273 113.375 204.164 113.375C205.242 113.375 206.305 113.172 207.352 112.766C208.398 112.359 209.297 111.688 210.047 110.75L213.633 115.016C213.117 115.75 212.383 116.461 211.43 117.148C210.492 117.836 209.367 118.398 208.055 118.836C206.742 119.258 205.273 119.469 203.648 119.469ZM225.492 99.0078V119H217.594V93.6406H225L225.492 99.0078ZM224.531 105.453L222.727 105.5C222.727 103.719 222.938 102.078 223.359 100.578C223.781 99.0781 224.406 97.7734 225.234 96.6641C226.062 95.5547 227.078 94.6953 228.281 94.0859C229.5 93.4766 230.906 93.1719 232.5 93.1719C233.609 93.1719 234.617 93.3438 235.523 93.6875C236.43 94.0156 237.211 94.5391 237.867 95.2578C238.523 95.9609 239.023 96.8828 239.367 98.0234C239.727 99.1484 239.906 100.5 239.906 102.078V119H232.008V103.086C232.008 102.008 231.883 101.195 231.633 100.648C231.398 100.102 231.055 99.7344 230.602 99.5469C230.148 99.3594 229.594 99.2656 228.938 99.2656C228.25 99.2656 227.633 99.4219 227.086 99.7344C226.539 100.047 226.07 100.484 225.68 101.047C225.305 101.594 225.016 102.242 224.812 102.992C224.625 103.742 224.531 104.562 224.531 105.453ZM239.016 105.453L236.812 105.5C236.812 103.719 237.008 102.078 237.398 100.578C237.805 99.0781 238.406 97.7734 239.203 96.6641C240.016 95.5547 241.023 94.6953 242.227 94.0859C243.43 93.4766 244.828 93.1719 246.422 93.1719C247.578 93.1719 248.641 93.3438 249.609 93.6875C250.578 94.0312 251.414 94.5859 252.117 95.3516C252.82 96.1172 253.367 97.1328 253.758 98.3984C254.148 99.6484 254.344 101.195 254.344 103.039V119H246.422V103.039C246.422 101.992 246.297 101.203 246.047 100.672C245.812 100.125 245.469 99.7578 245.016 99.5703C244.562 99.3672 244.023 99.2656 243.398 99.2656C242.648 99.2656 242 99.4219 241.453 99.7344C240.906 100.047 240.445 100.484 240.07 101.047C239.711 101.594 239.445 102.242 239.273 102.992C239.102 103.742 239.016 104.562 239.016 105.453ZM271.148 119.469C269.086 119.469 267.242 119.148 265.617 118.508C263.992 117.852 262.617 116.953 261.492 115.812C260.383 114.672 259.531 113.359 258.938 111.875C258.359 110.391 258.07 108.82 258.07 107.164V106.273C258.07 104.414 258.328 102.695 258.844 101.117C259.359 99.5234 260.125 98.1328 261.141 96.9453C262.156 95.7578 263.43 94.8359 264.961 94.1797C266.492 93.5078 268.273 93.1719 270.305 93.1719C272.102 93.1719 273.711 93.4609 275.133 94.0391C276.555 94.6172 277.758 95.4453 278.742 96.5234C279.742 97.6016 280.5 98.9062 281.016 100.438C281.547 101.969 281.812 103.688 281.812 105.594V108.805H261.094V103.859H274.102V103.25C274.117 102.406 273.969 101.688 273.656 101.094C273.359 100.5 272.922 100.047 272.344 99.7344C271.766 99.4219 271.062 99.2656 270.234 99.2656C269.375 99.2656 268.664 99.4531 268.102 99.8281C267.555 100.203 267.125 100.719 266.812 101.375C266.516 102.016 266.305 102.758 266.18 103.602C266.055 104.445 265.992 105.336 265.992 106.273V107.164C265.992 108.102 266.117 108.953 266.367 109.719C266.633 110.484 267.008 111.141 267.492 111.688C267.992 112.219 268.586 112.633 269.273 112.93C269.977 113.227 270.773 113.375 271.664 113.375C272.742 113.375 273.805 113.172 274.852 112.766C275.898 112.359 276.797 111.688 277.547 110.75L281.133 115.016C280.617 115.75 279.883 116.461 278.93 117.148C277.992 117.836 276.867 118.398 275.555 118.836C274.242 119.258 272.773 119.469 271.148 119.469ZM292.781 99.0547V119H284.883V93.6406H292.289L292.781 99.0547ZM291.844 105.453L289.992 105.5C289.992 103.562 290.227 101.836 290.695 100.32C291.164 98.7891 291.828 97.4922 292.688 96.4297C293.547 95.3672 294.57 94.5625 295.758 94.0156C296.961 93.4531 298.297 93.1719 299.766 93.1719C300.938 93.1719 302.008 93.3438 302.977 93.6875C303.961 94.0312 304.805 94.5859 305.508 95.3516C306.227 96.1172 306.773 97.1328 307.148 98.3984C307.539 99.6484 307.734 101.195 307.734 103.039V119H299.789V103.016C299.789 102 299.648 101.227 299.367 100.695C299.086 100.148 298.68 99.7734 298.148 99.5703C297.617 99.3672 296.969 99.2656 296.203 99.2656C295.391 99.2656 294.703 99.4219 294.141 99.7344C293.578 100.047 293.125 100.484 292.781 101.047C292.453 101.594 292.211 102.242 292.055 102.992C291.914 103.742 291.844 104.562 291.844 105.453ZM325.477 93.6406V99.125H310.195V93.6406H325.477ZM313.406 87.3359H321.305V110.727C321.305 111.398 321.383 111.922 321.539 112.297C321.695 112.656 321.961 112.914 322.336 113.07C322.727 113.211 323.242 113.281 323.883 113.281C324.336 113.281 324.711 113.273 325.008 113.258C325.305 113.227 325.586 113.188 325.852 113.141V118.789C325.18 119.008 324.477 119.172 323.742 119.281C323.008 119.406 322.227 119.469 321.398 119.469C319.711 119.469 318.266 119.203 317.062 118.672C315.875 118.141 314.969 117.305 314.344 116.164C313.719 115.023 313.406 113.539 313.406 111.711V87.3359ZM341.789 112.625V102.172C341.789 101.453 341.688 100.836 341.484 100.32C341.281 99.8047 340.961 99.4062 340.523 99.125C340.086 98.8281 339.5 98.6797 338.766 98.6797C338.172 98.6797 337.664 98.7812 337.242 98.9844C336.82 99.1875 336.5 99.4922 336.281 99.8984C336.062 100.305 335.953 100.82 335.953 101.445H328.055C328.055 100.273 328.312 99.1875 328.828 98.1875C329.359 97.1719 330.109 96.2891 331.078 95.5391C332.062 94.7891 333.234 94.2109 334.594 93.8047C335.969 93.3828 337.5 93.1719 339.188 93.1719C341.203 93.1719 343 93.5078 344.578 94.1797C346.172 94.8516 347.43 95.8594 348.352 97.2031C349.273 98.5312 349.734 100.203 349.734 102.219V112.602C349.734 114.258 349.828 115.516 350.016 116.375C350.203 117.219 350.469 117.961 350.812 118.602V119H342.891C342.516 118.219 342.234 117.266 342.047 116.141C341.875 115 341.789 113.828 341.789 112.625ZM342.75 103.508L342.797 107.727H339.305C338.57 107.727 337.945 107.828 337.43 108.031C336.93 108.234 336.523 108.516 336.211 108.875C335.914 109.219 335.695 109.609 335.555 110.047C335.43 110.484 335.367 110.945 335.367 111.43C335.367 111.898 335.477 112.32 335.695 112.695C335.93 113.055 336.242 113.336 336.633 113.539C337.023 113.742 337.461 113.844 337.945 113.844C338.82 113.844 339.562 113.68 340.172 113.352C340.797 113.008 341.273 112.594 341.602 112.109C341.93 111.625 342.094 111.172 342.094 110.75L343.828 113.984C343.516 114.609 343.156 115.242 342.75 115.883C342.359 116.523 341.867 117.117 341.273 117.664C340.695 118.195 339.984 118.633 339.141 118.977C338.297 119.305 337.273 119.469 336.07 119.469C334.508 119.469 333.07 119.148 331.758 118.508C330.461 117.867 329.422 116.977 328.641 115.836C327.859 114.68 327.469 113.352 327.469 111.852C327.469 110.539 327.703 109.367 328.172 108.336C328.656 107.305 329.383 106.43 330.352 105.711C331.32 104.992 332.555 104.445 334.055 104.07C335.555 103.695 337.32 103.508 339.352 103.508H342.75ZM367.477 93.6406V99.125H352.195V93.6406H367.477ZM355.406 87.3359H363.305V110.727C363.305 111.398 363.383 111.922 363.539 112.297C363.695 112.656 363.961 112.914 364.336 113.07C364.727 113.211 365.242 113.281 365.883 113.281C366.336 113.281 366.711 113.273 367.008 113.258C367.305 113.227 367.586 113.188 367.852 113.141V118.789C367.18 119.008 366.477 119.172 365.742 119.281C365.008 119.406 364.227 119.469 363.398 119.469C361.711 119.469 360.266 119.203 359.062 118.672C357.875 118.141 356.969 117.305 356.344 116.164C355.719 115.023 355.406 113.539 355.406 111.711V87.3359ZM378.961 93.6406V119H371.039V93.6406H378.961ZM370.57 87.1016C370.57 85.9766 370.977 85.0547 371.789 84.3359C372.602 83.6172 373.656 83.2578 374.953 83.2578C376.25 83.2578 377.305 83.6172 378.117 84.3359C378.93 85.0547 379.336 85.9766 379.336 87.1016C379.336 88.2266 378.93 89.1484 378.117 89.8672C377.305 90.5859 376.25 90.9453 374.953 90.9453C373.656 90.9453 372.602 90.5859 371.789 89.8672C370.977 89.1484 370.57 88.2266 370.57 87.1016ZM382.852 106.578V106.086C382.852 104.227 383.117 102.516 383.648 100.953C384.18 99.375 384.961 98.0078 385.992 96.8516C387.023 95.6953 388.297 94.7969 389.812 94.1562C391.328 93.5 393.078 93.1719 395.062 93.1719C397.062 93.1719 398.82 93.5 400.336 94.1562C401.867 94.7969 403.148 95.6953 404.18 96.8516C405.211 98.0078 405.992 99.375 406.523 100.953C407.055 102.516 407.32 104.227 407.32 106.086V106.578C407.32 108.422 407.055 110.133 406.523 111.711C405.992 113.273 405.211 114.641 404.18 115.812C403.148 116.969 401.875 117.867 400.359 118.508C398.844 119.148 397.094 119.469 395.109 119.469C393.125 119.469 391.367 119.148 389.836 118.508C388.305 117.867 387.023 116.969 385.992 115.812C384.961 114.641 384.18 113.273 383.648 111.711C383.117 110.133 382.852 108.422 382.852 106.578ZM390.75 106.086V106.578C390.75 107.531 390.82 108.422 390.961 109.25C391.102 110.078 391.336 110.805 391.664 111.43C391.992 112.039 392.438 112.516 393 112.859C393.562 113.203 394.266 113.375 395.109 113.375C395.938 113.375 396.625 113.203 397.172 112.859C397.734 112.516 398.18 112.039 398.508 111.43C398.836 110.805 399.07 110.078 399.211 109.25C399.352 108.422 399.422 107.531 399.422 106.578V106.086C399.422 105.164 399.352 104.297 399.211 103.484C399.07 102.656 398.836 101.93 398.508 101.305C398.18 100.664 397.734 100.164 397.172 99.8047C396.609 99.4453 395.906 99.2656 395.062 99.2656C394.234 99.2656 393.539 99.4453 392.977 99.8047C392.43 100.164 391.992 100.664 391.664 101.305C391.336 101.93 391.102 102.656 390.961 103.484C390.82 104.297 390.75 105.164 390.75 106.086ZM418.594 99.0547V119H410.695V93.6406H418.102L418.594 99.0547ZM417.656 105.453L415.805 105.5C415.805 103.562 416.039 101.836 416.508 100.32C416.977 98.7891 417.641 97.4922 418.5 96.4297C419.359 95.3672 420.383 94.5625 421.57 94.0156C422.773 93.4531 424.109 93.1719 425.578 93.1719C426.75 93.1719 427.82 93.3438 428.789 93.6875C429.773 94.0312 430.617 94.5859 431.32 95.3516C432.039 96.1172 432.586 97.1328 432.961 98.3984C433.352 99.6484 433.547 101.195 433.547 103.039V119H425.602V103.016C425.602 102 425.461 101.227 425.18 100.695C424.898 100.148 424.492 99.7734 423.961 99.5703C423.43 99.3672 422.781 99.2656 422.016 99.2656C421.203 99.2656 420.516 99.4219 419.953 99.7344C419.391 100.047 418.938 100.484 418.594 101.047C418.266 101.594 418.023 102.242 417.867 102.992C417.727 103.742 417.656 104.562 417.656 105.453Z" fill="black"/>
<path d="M1134 0H1348C1356.28 0 1363 6.71573 1363 15V148C1363 156.284 1356.28 163 1348 163H1134V0Z" fill="#C8127F"/>
<path d="M1281 46.5H1216L1213.5 49V114L1216 116.5H1281L1283.5 114V49L1281 46.5ZM1278.5 111.5H1233.5V101.5H1245C1246.5 104.5 1250 106.5 1253.5 106.5C1259 106.5 1263.5 102 1263.5 96.5C1263.5 91 1259 86.5 1253.5 86.5C1248 86.5 1243.5 91 1243.5 96.5H1228.5V111.5H1218.5V51.5H1228.5V63C1225.5 64.5 1223.5 68 1223.5 71.5C1223.5 77 1228 81.5 1233.5 81.5C1239 81.5 1243.5 77 1243.5 71.5H1253.5C1253.5 77 1258 81.5 1263.5 81.5C1269 81.5 1273.5 77 1273.5 71.5C1273.5 66 1269 61.5 1263.5 61.5C1260 61.5 1256.5 63.5 1255 66.5H1242C1240.5 63.5 1237 61.5 1233.5 61.5V51.5H1278.5V111.5ZM1248.5 96.5C1248.5 93.5 1250.5 91.5 1253.5 91.5C1256.5 91.5 1258.5 93.5 1258.5 96.5C1258.5 99.5 1256.5 101.5 1253.5 101.5C1250.5 101.5 1248.5 99.5 1248.5 96.5ZM1233.5 66.5C1236.5 66.5 1238.5 68.5 1238.5 71.5C1238.5 74.5 1236.5 76.5 1233.5 76.5C1230.5 76.5 1228.5 74.5 1228.5 71.5C1228.5 68.5 1230.5 66.5 1233.5 66.5ZM1263.5 66.5C1266.5 66.5 1268.5 68.5 1268.5 71.5C1268.5 74.5 1266.5 76.5 1263.5 76.5C1260.5 76.5 1258.5 74.5 1258.5 71.5C1258.5 68.5 1260.5 66.5 1263.5 66.5Z" fill="white"/>
</svg>
