<svg width="1363" height="163" viewBox="0 0 1363 163" fill="none" xmlns="http://www.w3.org/2000/svg">
<path d="M0 15C0 6.71573 6.71573 0 15 0H37V163H15C6.71573 163 0 156.284 0 148V15Z" fill="#3E96D4"/>
<rect width="1097" height="163" transform="translate(37)" fill="#F0F0F0"/>
<path d="M101.906 53.9219L94.3945 51.2383V48.0859L104.602 52.375V54.6367L101.906 53.9219ZM94.3945 56.1719L101.918 53.4297L104.602 52.7852V55.0352L94.3945 59.3242V56.1719ZM119.836 46.8555L115.195 61H111.457L117.797 43.9375H120.176L119.836 46.8555ZM123.691 61L119.039 46.8555L118.664 43.9375H121.066L127.441 61H123.691ZM123.48 54.6484V57.4023H114.469V54.6484H123.48ZM135.668 57.4961C135.668 57.2539 135.598 57.0352 135.457 56.8398C135.316 56.6445 135.055 56.4648 134.672 56.3008C134.297 56.1289 133.754 55.9727 133.043 55.832C132.402 55.6914 131.805 55.5156 131.25 55.3047C130.703 55.0859 130.227 54.8242 129.82 54.5195C129.422 54.2148 129.109 53.8555 128.883 53.4414C128.656 53.0195 128.543 52.5391 128.543 52C128.543 51.4688 128.656 50.9688 128.883 50.5C129.117 50.0312 129.449 49.6172 129.879 49.2578C130.316 48.8906 130.848 48.6055 131.473 48.4023C132.105 48.1914 132.816 48.0859 133.605 48.0859C134.707 48.0859 135.652 48.2617 136.441 48.6133C137.238 48.9648 137.848 49.4492 138.27 50.0664C138.699 50.6758 138.914 51.3711 138.914 52.1523H135.539C135.539 51.8242 135.469 51.5312 135.328 51.2734C135.195 51.0078 134.984 50.8008 134.695 50.6523C134.414 50.4961 134.047 50.418 133.594 50.418C133.219 50.418 132.895 50.4844 132.621 50.6172C132.348 50.7422 132.137 50.9141 131.988 51.1328C131.848 51.3438 131.777 51.5781 131.777 51.8359C131.777 52.0312 131.816 52.207 131.895 52.3633C131.98 52.5117 132.117 52.6484 132.305 52.7734C132.492 52.8984 132.734 53.0156 133.031 53.125C133.336 53.2266 133.711 53.3203 134.156 53.4062C135.07 53.5938 135.887 53.8398 136.605 54.1445C137.324 54.4414 137.895 54.8477 138.316 55.3633C138.738 55.8711 138.949 56.5391 138.949 57.3672C138.949 57.9297 138.824 58.4453 138.574 58.9141C138.324 59.3828 137.965 59.793 137.496 60.1445C137.027 60.4883 136.465 60.7578 135.809 60.9531C135.16 61.1406 134.43 61.2344 133.617 61.2344C132.438 61.2344 131.438 61.0234 130.617 60.6016C129.805 60.1797 129.188 59.6445 128.766 58.9961C128.352 58.3398 128.145 57.668 128.145 56.9805H131.344C131.359 57.4414 131.477 57.8125 131.695 58.0938C131.922 58.375 132.207 58.5781 132.551 58.7031C132.902 58.8281 133.281 58.8906 133.688 58.8906C134.125 58.8906 134.488 58.832 134.777 58.7148C135.066 58.5898 135.285 58.4258 135.434 58.2227C135.59 58.0117 135.668 57.7695 135.668 57.4961ZM147.996 57.4961C147.996 57.2539 147.926 57.0352 147.785 56.8398C147.645 56.6445 147.383 56.4648 147 56.3008C146.625 56.1289 146.082 55.9727 145.371 55.832C144.73 55.6914 144.133 55.5156 143.578 55.3047C143.031 55.0859 142.555 54.8242 142.148 54.5195C141.75 54.2148 141.438 53.8555 141.211 53.4414C140.984 53.0195 140.871 52.5391 140.871 52C140.871 51.4688 140.984 50.9688 141.211 50.5C141.445 50.0312 141.777 49.6172 142.207 49.2578C142.645 48.8906 143.176 48.6055 143.801 48.4023C144.434 48.1914 145.145 48.0859 145.934 48.0859C147.035 48.0859 147.98 48.2617 148.77 48.6133C149.566 48.9648 150.176 49.4492 150.598 50.0664C151.027 50.6758 151.242 51.3711 151.242 52.1523H147.867C147.867 51.8242 147.797 51.5312 147.656 51.2734C147.523 51.0078 147.312 50.8008 147.023 50.6523C146.742 50.4961 146.375 50.418 145.922 50.418C145.547 50.418 145.223 50.4844 144.949 50.6172C144.676 50.7422 144.465 50.9141 144.316 51.1328C144.176 51.3438 144.105 51.5781 144.105 51.8359C144.105 52.0312 144.145 52.207 144.223 52.3633C144.309 52.5117 144.445 52.6484 144.633 52.7734C144.82 52.8984 145.062 53.0156 145.359 53.125C145.664 53.2266 146.039 53.3203 146.484 53.4062C147.398 53.5938 148.215 53.8398 148.934 54.1445C149.652 54.4414 150.223 54.8477 150.645 55.3633C151.066 55.8711 151.277 56.5391 151.277 57.3672C151.277 57.9297 151.152 58.4453 150.902 58.9141C150.652 59.3828 150.293 59.793 149.824 60.1445C149.355 60.4883 148.793 60.7578 148.137 60.9531C147.488 61.1406 146.758 61.2344 145.945 61.2344C144.766 61.2344 143.766 61.0234 142.945 60.6016C142.133 60.1797 141.516 59.6445 141.094 58.9961C140.68 58.3398 140.473 57.668 140.473 56.9805H143.672C143.688 57.4414 143.805 57.8125 144.023 58.0938C144.25 58.375 144.535 58.5781 144.879 58.7031C145.23 58.8281 145.609 58.8906 146.016 58.8906C146.453 58.8906 146.816 58.832 147.105 58.7148C147.395 58.5898 147.613 58.4258 147.762 58.2227C147.918 58.0117 147.996 57.7695 147.996 57.4961ZM160.969 57.9648V48.3203H164.344V61H161.168L160.969 57.9648ZM161.344 55.3633L162.34 55.3398C162.34 56.1836 162.242 56.9688 162.047 57.6953C161.852 58.4141 161.559 59.0391 161.168 59.5703C160.777 60.0938 160.285 60.5039 159.691 60.8008C159.098 61.0898 158.398 61.2344 157.594 61.2344C156.977 61.2344 156.406 61.1484 155.883 60.9766C155.367 60.7969 154.922 60.5195 154.547 60.1445C154.18 59.7617 153.891 59.2734 153.68 58.6797C153.477 58.0781 153.375 57.3555 153.375 56.5117V48.3203H156.75V56.5352C156.75 56.9102 156.793 57.2266 156.879 57.4844C156.973 57.7422 157.102 57.9531 157.266 58.1172C157.43 58.2812 157.621 58.3984 157.84 58.4688C158.066 58.5391 158.316 58.5742 158.59 58.5742C159.285 58.5742 159.832 58.4336 160.23 58.1523C160.637 57.8711 160.922 57.4883 161.086 57.0039C161.258 56.5117 161.344 55.9648 161.344 55.3633ZM170.297 51.0859V61H166.922V48.3203H170.098L170.297 51.0859ZM174.117 48.2383L174.059 51.3672C173.895 51.3438 173.695 51.3242 173.461 51.3086C173.234 51.2852 173.027 51.2734 172.84 51.2734C172.363 51.2734 171.949 51.3359 171.598 51.4609C171.254 51.5781 170.965 51.7539 170.73 51.9883C170.504 52.2227 170.332 52.5078 170.215 52.8438C170.105 53.1797 170.043 53.5625 170.027 53.9922L169.348 53.7812C169.348 52.9609 169.43 52.207 169.594 51.5195C169.758 50.8242 169.996 50.2188 170.309 49.7031C170.629 49.1875 171.02 48.7891 171.48 48.5078C171.941 48.2266 172.469 48.0859 173.062 48.0859C173.25 48.0859 173.441 48.1016 173.637 48.1328C173.832 48.1562 173.992 48.1914 174.117 48.2383ZM181.312 61.2344C180.328 61.2344 179.445 61.0781 178.664 60.7656C177.883 60.4453 177.219 60.0039 176.672 59.4414C176.133 58.8789 175.719 58.2266 175.43 57.4844C175.141 56.7344 174.996 55.9375 174.996 55.0938V54.625C174.996 53.6641 175.133 52.7852 175.406 51.9883C175.68 51.1914 176.07 50.5 176.578 49.9141C177.094 49.3281 177.719 48.8789 178.453 48.5664C179.188 48.2461 180.016 48.0859 180.938 48.0859C181.836 48.0859 182.633 48.2344 183.328 48.5312C184.023 48.8281 184.605 49.25 185.074 49.7969C185.551 50.3438 185.91 51 186.152 51.7656C186.395 52.5234 186.516 53.3672 186.516 54.2969V55.7031H176.438V53.4531H183.199V53.1953C183.199 52.7266 183.113 52.3086 182.941 51.9414C182.777 51.5664 182.527 51.2695 182.191 51.0508C181.855 50.832 181.426 50.7227 180.902 50.7227C180.457 50.7227 180.074 50.8203 179.754 51.0156C179.434 51.2109 179.172 51.4844 178.969 51.8359C178.773 52.1875 178.625 52.6016 178.523 53.0781C178.43 53.5469 178.383 54.0625 178.383 54.625V55.0938C178.383 55.6016 178.453 56.0703 178.594 56.5C178.742 56.9297 178.949 57.3008 179.215 57.6133C179.488 57.9258 179.816 58.168 180.199 58.3398C180.59 58.5117 181.031 58.5977 181.523 58.5977C182.133 58.5977 182.699 58.4805 183.223 58.2461C183.754 58.0039 184.211 57.6406 184.594 57.1562L186.234 58.9375C185.969 59.3203 185.605 59.6875 185.145 60.0391C184.691 60.3906 184.145 60.6797 183.504 60.9062C182.863 61.125 182.133 61.2344 181.312 61.2344ZM199.617 58.2578V61H191.027V58.2578H199.617ZM192.164 43.9375V61H188.648V43.9375H192.164ZM204.984 48.3203V61H201.598V48.3203H204.984ZM201.387 45.0156C201.387 44.5234 201.559 44.1172 201.902 43.7969C202.246 43.4766 202.707 43.3164 203.285 43.3164C203.855 43.3164 204.312 43.4766 204.656 43.7969C205.008 44.1172 205.184 44.5234 205.184 45.0156C205.184 45.5078 205.008 45.9141 204.656 46.2344C204.312 46.5547 203.855 46.7148 203.285 46.7148C202.707 46.7148 202.246 46.5547 201.902 46.2344C201.559 45.9141 201.387 45.5078 201.387 45.0156ZM211.078 51.0273V61H207.703V48.3203H210.867L211.078 51.0273ZM210.586 54.2148H209.672C209.672 53.2773 209.793 52.4336 210.035 51.6836C210.277 50.9258 210.617 50.2812 211.055 49.75C211.492 49.2109 212.012 48.8008 212.613 48.5195C213.223 48.2305 213.902 48.0859 214.652 48.0859C215.246 48.0859 215.789 48.1719 216.281 48.3438C216.773 48.5156 217.195 48.7891 217.547 49.1641C217.906 49.5391 218.18 50.0352 218.367 50.6523C218.562 51.2695 218.66 52.0234 218.66 52.9141V61H215.262V52.9023C215.262 52.3398 215.184 51.9023 215.027 51.5898C214.871 51.2773 214.641 51.0586 214.336 50.9336C214.039 50.8008 213.672 50.7344 213.234 50.7344C212.781 50.7344 212.387 50.8242 212.051 51.0039C211.723 51.1836 211.449 51.4336 211.23 51.7539C211.02 52.0664 210.859 52.4336 210.75 52.8555C210.641 53.2773 210.586 53.7305 210.586 54.2148ZM224.602 42.9883V61H221.227V42.9883H224.602ZM232.594 48.3203L227.086 54.6016L224.133 57.5898L222.902 55.1523L225.246 52.1758L228.539 48.3203H232.594ZM229.09 61L225.34 55.1406L227.672 53.1016L232.98 61H229.09Z" fill="#888888"/>
<path d="M109.219 107.422H100.734V101.07H109.219C110.375 101.07 111.312 100.875 112.031 100.484C112.75 100.094 113.273 99.5547 113.602 98.8672C113.945 98.1641 114.117 97.375 114.117 96.5C114.117 95.5625 113.945 94.6953 113.602 93.8984C113.273 93.1016 112.75 92.4609 112.031 91.9766C111.312 91.4766 110.375 91.2266 109.219 91.2266H103.828V119H95.6016V84.875H109.219C111.953 84.875 114.305 85.375 116.273 86.375C118.258 87.375 119.781 88.75 120.844 90.5C121.906 92.2344 122.438 94.2188 122.438 96.4531C122.438 98.6562 121.906 100.578 120.844 102.219C119.781 103.859 118.258 105.141 116.273 106.062C114.305 106.969 111.953 107.422 109.219 107.422ZM134.461 99.9219V119H126.562V93.6406H133.945L134.461 99.9219ZM141.961 93.4531L141.82 100.789C141.508 100.758 141.086 100.719 140.555 100.672C140.023 100.625 139.578 100.602 139.219 100.602C138.297 100.602 137.5 100.711 136.828 100.93C136.172 101.133 135.625 101.445 135.188 101.867C134.766 102.273 134.453 102.789 134.25 103.414C134.062 104.039 133.977 104.766 133.992 105.594L132.562 104.656C132.562 102.953 132.727 101.406 133.055 100.016C133.398 98.6094 133.883 97.3984 134.508 96.3828C135.133 95.3516 135.891 94.5625 136.781 94.0156C137.672 93.4531 138.672 93.1719 139.781 93.1719C140.172 93.1719 140.555 93.1953 140.93 93.2422C141.32 93.2891 141.664 93.3594 141.961 93.4531ZM142.852 106.578V106.086C142.852 104.227 143.117 102.516 143.648 100.953C144.18 99.375 144.961 98.0078 145.992 96.8516C147.023 95.6953 148.297 94.7969 149.812 94.1562C151.328 93.5 153.078 93.1719 155.062 93.1719C157.062 93.1719 158.82 93.5 160.336 94.1562C161.867 94.7969 163.148 95.6953 164.18 96.8516C165.211 98.0078 165.992 99.375 166.523 100.953C167.055 102.516 167.32 104.227 167.32 106.086V106.578C167.32 108.422 167.055 110.133 166.523 111.711C165.992 113.273 165.211 114.641 164.18 115.812C163.148 116.969 161.875 117.867 160.359 118.508C158.844 119.148 157.094 119.469 155.109 119.469C153.125 119.469 151.367 119.148 149.836 118.508C148.305 117.867 147.023 116.969 145.992 115.812C144.961 114.641 144.18 113.273 143.648 111.711C143.117 110.133 142.852 108.422 142.852 106.578ZM150.75 106.086V106.578C150.75 107.531 150.82 108.422 150.961 109.25C151.102 110.078 151.336 110.805 151.664 111.43C151.992 112.039 152.438 112.516 153 112.859C153.562 113.203 154.266 113.375 155.109 113.375C155.938 113.375 156.625 113.203 157.172 112.859C157.734 112.516 158.18 112.039 158.508 111.43C158.836 110.805 159.07 110.078 159.211 109.25C159.352 108.422 159.422 107.531 159.422 106.578V106.086C159.422 105.164 159.352 104.297 159.211 103.484C159.07 102.656 158.836 101.93 158.508 101.305C158.18 100.664 157.734 100.164 157.172 99.8047C156.609 99.4453 155.906 99.2656 155.062 99.2656C154.234 99.2656 153.539 99.4453 152.977 99.8047C152.43 100.164 151.992 100.664 151.664 101.305C151.336 101.93 151.102 102.656 150.961 103.484C150.82 104.297 150.75 105.164 150.75 106.086ZM184.195 93.6406V99.125H168.914V93.6406H184.195ZM172.125 87.3359H180.023V110.727C180.023 111.398 180.102 111.922 180.258 112.297C180.414 112.656 180.68 112.914 181.055 113.07C181.445 113.211 181.961 113.281 182.602 113.281C183.055 113.281 183.43 113.273 183.727 113.258C184.023 113.227 184.305 113.188 184.57 113.141V118.789C183.898 119.008 183.195 119.172 182.461 119.281C181.727 119.406 180.945 119.469 180.117 119.469C178.43 119.469 176.984 119.203 175.781 118.672C174.594 118.141 173.688 117.305 173.062 116.164C172.438 115.023 172.125 113.539 172.125 111.711V87.3359ZM185.648 106.578V106.086C185.648 104.227 185.914 102.516 186.445 100.953C186.977 99.375 187.758 98.0078 188.789 96.8516C189.82 95.6953 191.094 94.7969 192.609 94.1562C194.125 93.5 195.875 93.1719 197.859 93.1719C199.859 93.1719 201.617 93.5 203.133 94.1562C204.664 94.7969 205.945 95.6953 206.977 96.8516C208.008 98.0078 208.789 99.375 209.32 100.953C209.852 102.516 210.117 104.227 210.117 106.086V106.578C210.117 108.422 209.852 110.133 209.32 111.711C208.789 113.273 208.008 114.641 206.977 115.812C205.945 116.969 204.672 117.867 203.156 118.508C201.641 119.148 199.891 119.469 197.906 119.469C195.922 119.469 194.164 119.148 192.633 118.508C191.102 117.867 189.82 116.969 188.789 115.812C187.758 114.641 186.977 113.273 186.445 111.711C185.914 110.133 185.648 108.422 185.648 106.578ZM193.547 106.086V106.578C193.547 107.531 193.617 108.422 193.758 109.25C193.898 110.078 194.133 110.805 194.461 111.43C194.789 112.039 195.234 112.516 195.797 112.859C196.359 113.203 197.062 113.375 197.906 113.375C198.734 113.375 199.422 113.203 199.969 112.859C200.531 112.516 200.977 112.039 201.305 111.43C201.633 110.805 201.867 110.078 202.008 109.25C202.148 108.422 202.219 107.531 202.219 106.578V106.086C202.219 105.164 202.148 104.297 202.008 103.484C201.867 102.656 201.633 101.93 201.305 101.305C200.977 100.664 200.531 100.164 199.969 99.8047C199.406 99.4453 198.703 99.2656 197.859 99.2656C197.031 99.2656 196.336 99.4453 195.773 99.8047C195.227 100.164 194.789 100.664 194.461 101.305C194.133 101.93 193.898 102.656 193.758 103.484C193.617 104.297 193.547 105.164 193.547 106.086ZM226.992 93.6406V99.125H211.711V93.6406H226.992ZM214.922 87.3359H222.82V110.727C222.82 111.398 222.898 111.922 223.055 112.297C223.211 112.656 223.477 112.914 223.852 113.07C224.242 113.211 224.758 113.281 225.398 113.281C225.852 113.281 226.227 113.273 226.523 113.258C226.82 113.227 227.102 113.188 227.367 113.141V118.789C226.695 119.008 225.992 119.172 225.258 119.281C224.523 119.406 223.742 119.469 222.914 119.469C221.227 119.469 219.781 119.203 218.578 118.672C217.391 118.141 216.484 117.305 215.859 116.164C215.234 115.023 214.922 113.539 214.922 111.711V87.3359ZM237.914 116.023L244.477 93.6406H252.961L242.766 122.773C242.547 123.414 242.258 124.102 241.898 124.836C241.539 125.586 241.047 126.297 240.422 126.969C239.797 127.641 238.992 128.188 238.008 128.609C237.039 129.031 235.836 129.242 234.398 129.242C233.633 129.242 233.07 129.203 232.711 129.125C232.367 129.062 231.836 128.945 231.117 128.773V123.125C231.32 123.125 231.492 123.125 231.633 123.125C231.789 123.125 231.961 123.125 232.148 123.125C232.992 123.125 233.664 123.039 234.164 122.867C234.68 122.695 235.07 122.445 235.336 122.117C235.617 121.789 235.836 121.391 235.992 120.922L237.914 116.023ZM236.25 93.6406L241.242 111.383L242.109 119.75H236.812L227.789 93.6406H236.25ZM262.992 98.5156V128.75H255.094V93.6406H262.453L262.992 98.5156ZM278.555 106.016V106.508C278.555 108.352 278.344 110.062 277.922 111.641C277.5 113.219 276.875 114.594 276.047 115.766C275.219 116.938 274.188 117.852 272.953 118.508C271.734 119.148 270.32 119.469 268.711 119.469C267.195 119.469 265.891 119.133 264.797 118.461C263.703 117.789 262.789 116.859 262.055 115.672C261.32 114.484 260.727 113.125 260.273 111.594C259.82 110.062 259.461 108.445 259.195 106.742V106.109C259.461 104.281 259.82 102.586 260.273 101.023C260.727 99.4453 261.32 98.0703 262.055 96.8984C262.789 95.7266 263.695 94.8125 264.773 94.1562C265.867 93.5 267.172 93.1719 268.688 93.1719C270.297 93.1719 271.711 93.4766 272.93 94.0859C274.164 94.6953 275.195 95.5703 276.023 96.7109C276.867 97.8359 277.5 99.1875 277.922 100.766C278.344 102.344 278.555 104.094 278.555 106.016ZM270.656 106.508V106.016C270.656 105.031 270.586 104.133 270.445 103.32C270.305 102.492 270.078 101.773 269.766 101.164C269.469 100.555 269.07 100.086 268.57 99.7578C268.07 99.4297 267.453 99.2656 266.719 99.2656C265.875 99.2656 265.164 99.3984 264.586 99.6641C264.023 99.9141 263.57 100.305 263.227 100.836C262.898 101.352 262.664 102 262.523 102.781C262.398 103.547 262.344 104.445 262.359 105.477V107.398C262.328 108.586 262.445 109.633 262.711 110.539C262.977 111.43 263.438 112.125 264.094 112.625C264.75 113.125 265.641 113.375 266.766 113.375C267.516 113.375 268.141 113.203 268.641 112.859C269.141 112.5 269.539 112.008 269.836 111.383C270.133 110.742 270.344 110.008 270.469 109.18C270.594 108.352 270.656 107.461 270.656 106.508ZM290.414 93.6406V119H282.492V93.6406H290.414ZM282.023 87.1016C282.023 85.9766 282.43 85.0547 283.242 84.3359C284.055 83.6172 285.109 83.2578 286.406 83.2578C287.703 83.2578 288.758 83.6172 289.57 84.3359C290.383 85.0547 290.789 85.9766 290.789 87.1016C290.789 88.2266 290.383 89.1484 289.57 89.8672C288.758 90.5859 287.703 90.9453 286.406 90.9453C285.109 90.9453 284.055 90.5859 283.242 89.8672C282.43 89.1484 282.023 88.2266 282.023 87.1016ZM303.047 99.0547V119H295.148V93.6406H302.555L303.047 99.0547ZM302.109 105.453L300.258 105.5C300.258 103.562 300.492 101.836 300.961 100.32C301.43 98.7891 302.094 97.4922 302.953 96.4297C303.812 95.3672 304.836 94.5625 306.023 94.0156C307.227 93.4531 308.562 93.1719 310.031 93.1719C311.203 93.1719 312.273 93.3438 313.242 93.6875C314.227 94.0312 315.07 94.5859 315.773 95.3516C316.492 96.1172 317.039 97.1328 317.414 98.3984C317.805 99.6484 318 101.195 318 103.039V119H310.055V103.016C310.055 102 309.914 101.227 309.633 100.695C309.352 100.148 308.945 99.7734 308.414 99.5703C307.883 99.3672 307.234 99.2656 306.469 99.2656C305.656 99.2656 304.969 99.4219 304.406 99.7344C303.844 100.047 303.391 100.484 303.047 101.047C302.719 101.594 302.477 102.242 302.32 102.992C302.18 103.742 302.109 104.562 302.109 105.453ZM338.32 93.6406H345.492V118.016C345.492 120.359 344.953 122.344 343.875 123.969C342.797 125.609 341.289 126.852 339.352 127.695C337.43 128.555 335.18 128.984 332.602 128.984C331.461 128.984 330.297 128.836 329.109 128.539C327.922 128.258 326.812 127.836 325.781 127.273C324.75 126.711 323.883 126.016 323.18 125.188L326.484 120.547C327.125 121.266 327.93 121.875 328.898 122.375C329.867 122.891 331.008 123.148 332.32 123.148C333.461 123.148 334.414 122.945 335.18 122.539C335.961 122.133 336.555 121.539 336.961 120.758C337.367 119.992 337.57 119.062 337.57 117.969V99.6406L338.32 93.6406ZM321.469 106.625V106.133C321.469 104.211 321.703 102.461 322.172 100.883C322.656 99.2891 323.344 97.9219 324.234 96.7812C325.141 95.625 326.234 94.7344 327.516 94.1094C328.797 93.4844 330.242 93.1719 331.852 93.1719C333.586 93.1719 335.008 93.5078 336.117 94.1797C337.242 94.8359 338.141 95.7578 338.812 96.9453C339.5 98.1328 340.031 99.5234 340.406 101.117C340.797 102.695 341.125 104.398 341.391 106.227V106.812C341.125 108.531 340.758 110.156 340.289 111.688C339.836 113.203 339.242 114.547 338.508 115.719C337.773 116.891 336.852 117.812 335.742 118.484C334.648 119.141 333.336 119.469 331.805 119.469C330.211 119.469 328.773 119.148 327.492 118.508C326.227 117.867 325.141 116.969 324.234 115.812C323.344 114.656 322.656 113.297 322.172 111.734C321.703 110.172 321.469 108.469 321.469 106.625ZM329.367 106.133V106.625C329.367 107.578 329.453 108.461 329.625 109.273C329.812 110.086 330.094 110.805 330.469 111.43C330.844 112.039 331.305 112.516 331.852 112.859C332.414 113.203 333.07 113.375 333.82 113.375C334.961 113.375 335.883 113.133 336.586 112.648C337.289 112.164 337.797 111.477 338.109 110.586C338.422 109.695 338.555 108.648 338.508 107.445V105.594C338.539 104.562 338.469 103.656 338.297 102.875C338.125 102.078 337.852 101.414 337.477 100.883C337.117 100.352 336.633 99.9531 336.023 99.6875C335.43 99.4062 334.711 99.2656 333.867 99.2656C333.133 99.2656 332.484 99.4375 331.922 99.7812C331.359 100.125 330.891 100.609 330.516 101.234C330.141 101.844 329.852 102.57 329.648 103.414C329.461 104.242 329.367 105.148 329.367 106.133Z" fill="black"/>
<path d="M1134 0H1348C1356.28 0 1363 6.71573 1363 15V148C1363 156.284 1356.28 163 1348 163H1134V0Z" fill="#C8127F"/>
<path fill-rule="evenodd" clip-rule="evenodd" d="M1202.75 46.5018C1202.75 45.3973 1203.65 44.5018 1204.75 44.5018H1292.25C1293.35 44.5018 1294.25 45.3973 1294.25 46.5018V116.498C1294.25 117.603 1293.35 118.498 1292.25 118.498H1204.75C1203.65 118.498 1202.75 117.603 1202.75 116.498V46.5018ZM1206.75 48.5018V52.9963H1290.25V48.5018H1206.75ZM1290.25 56.9963H1235.19V114.498H1290.25V56.9963ZM1231.19 114.498V56.9963H1206.75V114.498H1231.19Z" fill="white"/>
<path fill-rule="evenodd" clip-rule="evenodd" d="M1209.72 62.3022C1209.72 61.1976 1210.62 60.3022 1211.72 60.3022H1225.72C1226.83 60.3022 1227.72 61.1976 1227.72 62.3022V81.6974C1227.72 82.802 1226.83 83.6974 1225.72 83.6974H1211.72C1210.62 83.6974 1209.72 82.802 1209.72 81.6974V62.3022ZM1213.72 64.3022V79.6974H1223.72V64.3022H1213.72ZM1239.33 63.1982C1239.33 62.0936 1240.22 61.1982 1241.33 61.1982H1284.25C1285.36 61.1982 1286.25 62.0936 1286.25 63.1982V109.407C1286.25 110.511 1285.36 111.407 1284.25 111.407H1241.33C1240.22 111.407 1239.33 110.511 1239.33 109.407V63.1982ZM1243.33 65.1982V107.407H1282.25V65.1982H1243.33ZM1209.56 93.4381C1209.56 92.3336 1210.46 91.4381 1211.56 91.4381H1220.48C1221.59 91.4381 1222.48 92.3336 1222.48 93.4381C1222.48 94.5427 1221.59 95.4381 1220.48 95.4381H1211.56C1210.46 95.4381 1209.56 94.5427 1209.56 93.4381ZM1209.56 100.438C1209.56 99.3335 1210.46 98.4381 1211.56 98.4381H1226.1C1227.21 98.4381 1228.1 99.3335 1228.1 100.438C1228.1 101.543 1227.21 102.438 1226.1 102.438H1211.56C1210.46 102.438 1209.56 101.543 1209.56 100.438ZM1209.56 107.438C1209.56 106.334 1210.46 105.438 1211.56 105.438H1220.48C1221.59 105.438 1222.48 106.334 1222.48 107.438C1222.48 108.543 1221.59 109.438 1220.48 109.438H1211.56C1210.46 109.438 1209.56 108.543 1209.56 107.438Z" fill="white"/>
</svg>
