<svg width="1363" height="163" viewBox="0 0 1363 163" fill="none" xmlns="http://www.w3.org/2000/svg">
<path d="M0 15C0 6.71573 6.71573 0 15 0H37V163H15C6.71573 163 0 156.284 0 148V15Z" fill="#181C7D"/>
<rect width="1097" height="163" transform="translate(37)" fill="#F0F0F0"/>
<path d="M101.906 53.9219L94.3945 51.2383V48.0859L104.602 52.375V54.6367L101.906 53.9219ZM94.3945 56.1719L101.918 53.4297L104.602 52.7852V55.0352L94.3945 59.3242V56.1719ZM119.836 46.8555L115.195 61H111.457L117.797 43.9375H120.176L119.836 46.8555ZM123.691 61L119.039 46.8555L118.664 43.9375H121.066L127.441 61H123.691ZM123.48 54.6484V57.4023H114.469V54.6484H123.48ZM135.668 57.4961C135.668 57.2539 135.598 57.0352 135.457 56.8398C135.316 56.6445 135.055 56.4648 134.672 56.3008C134.297 56.1289 133.754 55.9727 133.043 55.832C132.402 55.6914 131.805 55.5156 131.25 55.3047C130.703 55.0859 130.227 54.8242 129.82 54.5195C129.422 54.2148 129.109 53.8555 128.883 53.4414C128.656 53.0195 128.543 52.5391 128.543 52C128.543 51.4688 128.656 50.9688 128.883 50.5C129.117 50.0312 129.449 49.6172 129.879 49.2578C130.316 48.8906 130.848 48.6055 131.473 48.4023C132.105 48.1914 132.816 48.0859 133.605 48.0859C134.707 48.0859 135.652 48.2617 136.441 48.6133C137.238 48.9648 137.848 49.4492 138.27 50.0664C138.699 50.6758 138.914 51.3711 138.914 52.1523H135.539C135.539 51.8242 135.469 51.5312 135.328 51.2734C135.195 51.0078 134.984 50.8008 134.695 50.6523C134.414 50.4961 134.047 50.418 133.594 50.418C133.219 50.418 132.895 50.4844 132.621 50.6172C132.348 50.7422 132.137 50.9141 131.988 51.1328C131.848 51.3438 131.777 51.5781 131.777 51.8359C131.777 52.0312 131.816 52.207 131.895 52.3633C131.98 52.5117 132.117 52.6484 132.305 52.7734C132.492 52.8984 132.734 53.0156 133.031 53.125C133.336 53.2266 133.711 53.3203 134.156 53.4062C135.07 53.5938 135.887 53.8398 136.605 54.1445C137.324 54.4414 137.895 54.8477 138.316 55.3633C138.738 55.8711 138.949 56.5391 138.949 57.3672C138.949 57.9297 138.824 58.4453 138.574 58.9141C138.324 59.3828 137.965 59.793 137.496 60.1445C137.027 60.4883 136.465 60.7578 135.809 60.9531C135.16 61.1406 134.43 61.2344 133.617 61.2344C132.438 61.2344 131.438 61.0234 130.617 60.6016C129.805 60.1797 129.188 59.6445 128.766 58.9961C128.352 58.3398 128.145 57.668 128.145 56.9805H131.344C131.359 57.4414 131.477 57.8125 131.695 58.0938C131.922 58.375 132.207 58.5781 132.551 58.7031C132.902 58.8281 133.281 58.8906 133.688 58.8906C134.125 58.8906 134.488 58.832 134.777 58.7148C135.066 58.5898 135.285 58.4258 135.434 58.2227C135.59 58.0117 135.668 57.7695 135.668 57.4961ZM147.996 57.4961C147.996 57.2539 147.926 57.0352 147.785 56.8398C147.645 56.6445 147.383 56.4648 147 56.3008C146.625 56.1289 146.082 55.9727 145.371 55.832C144.73 55.6914 144.133 55.5156 143.578 55.3047C143.031 55.0859 142.555 54.8242 142.148 54.5195C141.75 54.2148 141.438 53.8555 141.211 53.4414C140.984 53.0195 140.871 52.5391 140.871 52C140.871 51.4688 140.984 50.9688 141.211 50.5C141.445 50.0312 141.777 49.6172 142.207 49.2578C142.645 48.8906 143.176 48.6055 143.801 48.4023C144.434 48.1914 145.145 48.0859 145.934 48.0859C147.035 48.0859 147.98 48.2617 148.77 48.6133C149.566 48.9648 150.176 49.4492 150.598 50.0664C151.027 50.6758 151.242 51.3711 151.242 52.1523H147.867C147.867 51.8242 147.797 51.5312 147.656 51.2734C147.523 51.0078 147.312 50.8008 147.023 50.6523C146.742 50.4961 146.375 50.418 145.922 50.418C145.547 50.418 145.223 50.4844 144.949 50.6172C144.676 50.7422 144.465 50.9141 144.316 51.1328C144.176 51.3438 144.105 51.5781 144.105 51.8359C144.105 52.0312 144.145 52.207 144.223 52.3633C144.309 52.5117 144.445 52.6484 144.633 52.7734C144.82 52.8984 145.062 53.0156 145.359 53.125C145.664 53.2266 146.039 53.3203 146.484 53.4062C147.398 53.5938 148.215 53.8398 148.934 54.1445C149.652 54.4414 150.223 54.8477 150.645 55.3633C151.066 55.8711 151.277 56.5391 151.277 57.3672C151.277 57.9297 151.152 58.4453 150.902 58.9141C150.652 59.3828 150.293 59.793 149.824 60.1445C149.355 60.4883 148.793 60.7578 148.137 60.9531C147.488 61.1406 146.758 61.2344 145.945 61.2344C144.766 61.2344 143.766 61.0234 142.945 60.6016C142.133 60.1797 141.516 59.6445 141.094 58.9961C140.68 58.3398 140.473 57.668 140.473 56.9805H143.672C143.688 57.4414 143.805 57.8125 144.023 58.0938C144.25 58.375 144.535 58.5781 144.879 58.7031C145.23 58.8281 145.609 58.8906 146.016 58.8906C146.453 58.8906 146.816 58.832 147.105 58.7148C147.395 58.5898 147.613 58.4258 147.762 58.2227C147.918 58.0117 147.996 57.7695 147.996 57.4961ZM160.969 57.9648V48.3203H164.344V61H161.168L160.969 57.9648ZM161.344 55.3633L162.34 55.3398C162.34 56.1836 162.242 56.9688 162.047 57.6953C161.852 58.4141 161.559 59.0391 161.168 59.5703C160.777 60.0938 160.285 60.5039 159.691 60.8008C159.098 61.0898 158.398 61.2344 157.594 61.2344C156.977 61.2344 156.406 61.1484 155.883 60.9766C155.367 60.7969 154.922 60.5195 154.547 60.1445C154.18 59.7617 153.891 59.2734 153.68 58.6797C153.477 58.0781 153.375 57.3555 153.375 56.5117V48.3203H156.75V56.5352C156.75 56.9102 156.793 57.2266 156.879 57.4844C156.973 57.7422 157.102 57.9531 157.266 58.1172C157.43 58.2812 157.621 58.3984 157.84 58.4688C158.066 58.5391 158.316 58.5742 158.59 58.5742C159.285 58.5742 159.832 58.4336 160.23 58.1523C160.637 57.8711 160.922 57.4883 161.086 57.0039C161.258 56.5117 161.344 55.9648 161.344 55.3633ZM170.297 51.0859V61H166.922V48.3203H170.098L170.297 51.0859ZM174.117 48.2383L174.059 51.3672C173.895 51.3438 173.695 51.3242 173.461 51.3086C173.234 51.2852 173.027 51.2734 172.84 51.2734C172.363 51.2734 171.949 51.3359 171.598 51.4609C171.254 51.5781 170.965 51.7539 170.73 51.9883C170.504 52.2227 170.332 52.5078 170.215 52.8438C170.105 53.1797 170.043 53.5625 170.027 53.9922L169.348 53.7812C169.348 52.9609 169.43 52.207 169.594 51.5195C169.758 50.8242 169.996 50.2188 170.309 49.7031C170.629 49.1875 171.02 48.7891 171.48 48.5078C171.941 48.2266 172.469 48.0859 173.062 48.0859C173.25 48.0859 173.441 48.1016 173.637 48.1328C173.832 48.1562 173.992 48.1914 174.117 48.2383ZM181.312 61.2344C180.328 61.2344 179.445 61.0781 178.664 60.7656C177.883 60.4453 177.219 60.0039 176.672 59.4414C176.133 58.8789 175.719 58.2266 175.43 57.4844C175.141 56.7344 174.996 55.9375 174.996 55.0938V54.625C174.996 53.6641 175.133 52.7852 175.406 51.9883C175.68 51.1914 176.07 50.5 176.578 49.9141C177.094 49.3281 177.719 48.8789 178.453 48.5664C179.188 48.2461 180.016 48.0859 180.938 48.0859C181.836 48.0859 182.633 48.2344 183.328 48.5312C184.023 48.8281 184.605 49.25 185.074 49.7969C185.551 50.3438 185.91 51 186.152 51.7656C186.395 52.5234 186.516 53.3672 186.516 54.2969V55.7031H176.438V53.4531H183.199V53.1953C183.199 52.7266 183.113 52.3086 182.941 51.9414C182.777 51.5664 182.527 51.2695 182.191 51.0508C181.855 50.832 181.426 50.7227 180.902 50.7227C180.457 50.7227 180.074 50.8203 179.754 51.0156C179.434 51.2109 179.172 51.4844 178.969 51.8359C178.773 52.1875 178.625 52.6016 178.523 53.0781C178.43 53.5469 178.383 54.0625 178.383 54.625V55.0938C178.383 55.6016 178.453 56.0703 178.594 56.5C178.742 56.9297 178.949 57.3008 179.215 57.6133C179.488 57.9258 179.816 58.168 180.199 58.3398C180.59 58.5117 181.031 58.5977 181.523 58.5977C182.133 58.5977 182.699 58.4805 183.223 58.2461C183.754 58.0039 184.211 57.6406 184.594 57.1562L186.234 58.9375C185.969 59.3203 185.605 59.6875 185.145 60.0391C184.691 60.3906 184.145 60.6797 183.504 60.9062C182.863 61.125 182.133 61.2344 181.312 61.2344ZM199.617 58.2578V61H191.027V58.2578H199.617ZM192.164 43.9375V61H188.648V43.9375H192.164ZM204.984 48.3203V61H201.598V48.3203H204.984ZM201.387 45.0156C201.387 44.5234 201.559 44.1172 201.902 43.7969C202.246 43.4766 202.707 43.3164 203.285 43.3164C203.855 43.3164 204.312 43.4766 204.656 43.7969C205.008 44.1172 205.184 44.5234 205.184 45.0156C205.184 45.5078 205.008 45.9141 204.656 46.2344C204.312 46.5547 203.855 46.7148 203.285 46.7148C202.707 46.7148 202.246 46.5547 201.902 46.2344C201.559 45.9141 201.387 45.5078 201.387 45.0156ZM211.078 51.0273V61H207.703V48.3203H210.867L211.078 51.0273ZM210.586 54.2148H209.672C209.672 53.2773 209.793 52.4336 210.035 51.6836C210.277 50.9258 210.617 50.2812 211.055 49.75C211.492 49.2109 212.012 48.8008 212.613 48.5195C213.223 48.2305 213.902 48.0859 214.652 48.0859C215.246 48.0859 215.789 48.1719 216.281 48.3438C216.773 48.5156 217.195 48.7891 217.547 49.1641C217.906 49.5391 218.18 50.0352 218.367 50.6523C218.562 51.2695 218.66 52.0234 218.66 52.9141V61H215.262V52.9023C215.262 52.3398 215.184 51.9023 215.027 51.5898C214.871 51.2773 214.641 51.0586 214.336 50.9336C214.039 50.8008 213.672 50.7344 213.234 50.7344C212.781 50.7344 212.387 50.8242 212.051 51.0039C211.723 51.1836 211.449 51.4336 211.23 51.7539C211.02 52.0664 210.859 52.4336 210.75 52.8555C210.641 53.2773 210.586 53.7305 210.586 54.2148ZM224.602 42.9883V61H221.227V42.9883H224.602ZM232.594 48.3203L227.086 54.6016L224.133 57.5898L222.902 55.1523L225.246 52.1758L228.539 48.3203H232.594ZM229.09 61L225.34 55.1406L227.672 53.1016L232.98 61H229.09Z" fill="#1F4398"/>
<path d="M118.594 98.4219V104.75H101.086V98.4219H118.594ZM103.828 84.875V119H95.6016V84.875H103.828ZM124.125 84.875V119H115.922V84.875H124.125ZM127.992 106.578V106.086C127.992 104.227 128.258 102.516 128.789 100.953C129.32 99.375 130.102 98.0078 131.133 96.8516C132.164 95.6953 133.438 94.7969 134.953 94.1562C136.469 93.5 138.219 93.1719 140.203 93.1719C142.203 93.1719 143.961 93.5 145.477 94.1562C147.008 94.7969 148.289 95.6953 149.32 96.8516C150.352 98.0078 151.133 99.375 151.664 100.953C152.195 102.516 152.461 104.227 152.461 106.086V106.578C152.461 108.422 152.195 110.133 151.664 111.711C151.133 113.273 150.352 114.641 149.32 115.812C148.289 116.969 147.016 117.867 145.5 118.508C143.984 119.148 142.234 119.469 140.25 119.469C138.266 119.469 136.508 119.148 134.977 118.508C133.445 117.867 132.164 116.969 131.133 115.812C130.102 114.641 129.32 113.273 128.789 111.711C128.258 110.133 127.992 108.422 127.992 106.578ZM135.891 106.086V106.578C135.891 107.531 135.961 108.422 136.102 109.25C136.242 110.078 136.477 110.805 136.805 111.43C137.133 112.039 137.578 112.516 138.141 112.859C138.703 113.203 139.406 113.375 140.25 113.375C141.078 113.375 141.766 113.203 142.312 112.859C142.875 112.516 143.32 112.039 143.648 111.43C143.977 110.805 144.211 110.078 144.352 109.25C144.492 108.422 144.562 107.531 144.562 106.578V106.086C144.562 105.164 144.492 104.297 144.352 103.484C144.211 102.656 143.977 101.93 143.648 101.305C143.32 100.664 142.875 100.164 142.312 99.8047C141.75 99.4453 141.047 99.2656 140.203 99.2656C139.375 99.2656 138.68 99.4453 138.117 99.8047C137.57 100.164 137.133 100.664 136.805 101.305C136.477 101.93 136.242 102.656 136.102 103.484C135.961 104.297 135.891 105.164 135.891 106.086ZM163.688 111.453L168.375 93.6406H173.32L171.562 102.57L166.922 119H162.961L163.688 111.453ZM161.836 93.6406L164.742 111.312L165.07 119H160.266L154.266 93.6406H161.836ZM177.492 110.938L180.422 93.6406H187.992L182.039 119H177.234L177.492 110.938ZM173.883 93.6406L178.617 111.406L179.344 119H175.336L170.789 102.617L169.102 93.6406H173.883ZM218.297 84.875V119H210.07V84.875H218.297ZM228.562 84.875V91.2266H200.039V84.875H228.562ZM225.773 106.578V106.086C225.773 104.227 226.039 102.516 226.57 100.953C227.102 99.375 227.883 98.0078 228.914 96.8516C229.945 95.6953 231.219 94.7969 232.734 94.1562C234.25 93.5 236 93.1719 237.984 93.1719C239.984 93.1719 241.742 93.5 243.258 94.1562C244.789 94.7969 246.07 95.6953 247.102 96.8516C248.133 98.0078 248.914 99.375 249.445 100.953C249.977 102.516 250.242 104.227 250.242 106.086V106.578C250.242 108.422 249.977 110.133 249.445 111.711C248.914 113.273 248.133 114.641 247.102 115.812C246.07 116.969 244.797 117.867 243.281 118.508C241.766 119.148 240.016 119.469 238.031 119.469C236.047 119.469 234.289 119.148 232.758 118.508C231.227 117.867 229.945 116.969 228.914 115.812C227.883 114.641 227.102 113.273 226.57 111.711C226.039 110.133 225.773 108.422 225.773 106.578ZM233.672 106.086V106.578C233.672 107.531 233.742 108.422 233.883 109.25C234.023 110.078 234.258 110.805 234.586 111.43C234.914 112.039 235.359 112.516 235.922 112.859C236.484 113.203 237.188 113.375 238.031 113.375C238.859 113.375 239.547 113.203 240.094 112.859C240.656 112.516 241.102 112.039 241.43 111.43C241.758 110.805 241.992 110.078 242.133 109.25C242.273 108.422 242.344 107.531 242.344 106.578V106.086C242.344 105.164 242.273 104.297 242.133 103.484C241.992 102.656 241.758 101.93 241.43 101.305C241.102 100.664 240.656 100.164 240.094 99.8047C239.531 99.4453 238.828 99.2656 237.984 99.2656C237.156 99.2656 236.461 99.4453 235.898 99.8047C235.352 100.164 234.914 100.664 234.586 101.305C234.258 101.93 234.023 102.656 233.883 103.484C233.742 104.297 233.672 105.164 233.672 106.086ZM266.086 84.875H279.516C282.141 84.875 284.422 85.2656 286.359 86.0469C288.297 86.8281 289.789 87.9844 290.836 89.5156C291.898 91.0469 292.43 92.9375 292.43 95.1875C292.43 97.1406 292.125 98.7734 291.516 100.086C290.906 101.398 290.055 102.484 288.961 103.344C287.883 104.188 286.625 104.883 285.188 105.43L282.492 106.953H271.219L271.172 100.602H279.516C280.562 100.602 281.43 100.414 282.117 100.039C282.805 99.6641 283.32 99.1328 283.664 98.4453C284.023 97.7422 284.203 96.9062 284.203 95.9375C284.203 94.9531 284.023 94.1094 283.664 93.4062C283.305 92.7031 282.773 92.1641 282.07 91.7891C281.383 91.4141 280.531 91.2266 279.516 91.2266H274.312V119H266.086V84.875ZM284.766 119L277.219 103.906L285.938 103.859L293.578 118.648V119H284.766ZM311.836 112.836V93.6406H319.758V119H312.352L311.836 112.836ZM312.586 107.68L314.648 107.633C314.648 109.336 314.445 110.914 314.039 112.367C313.633 113.805 313.031 115.055 312.234 116.117C311.453 117.18 310.484 118.008 309.328 118.602C308.188 119.18 306.867 119.469 305.367 119.469C304.117 119.469 302.969 119.297 301.922 118.953C300.891 118.594 300 118.039 299.25 117.289C298.5 116.523 297.914 115.547 297.492 114.359C297.086 113.156 296.883 111.719 296.883 110.047V93.6406H304.781V110.094C304.781 110.656 304.852 111.141 304.992 111.547C305.133 111.953 305.336 112.297 305.602 112.578C305.867 112.844 306.195 113.047 306.586 113.188C306.992 113.312 307.453 113.375 307.969 113.375C309.156 113.375 310.086 113.125 310.758 112.625C311.43 112.125 311.898 111.445 312.164 110.586C312.445 109.727 312.586 108.758 312.586 107.68ZM331.875 99.0547V119H323.977V93.6406H331.383L331.875 99.0547ZM330.938 105.453L329.086 105.5C329.086 103.562 329.32 101.836 329.789 100.32C330.258 98.7891 330.922 97.4922 331.781 96.4297C332.641 95.3672 333.664 94.5625 334.852 94.0156C336.055 93.4531 337.391 93.1719 338.859 93.1719C340.031 93.1719 341.102 93.3438 342.07 93.6875C343.055 94.0312 343.898 94.5859 344.602 95.3516C345.32 96.1172 345.867 97.1328 346.242 98.3984C346.633 99.6484 346.828 101.195 346.828 103.039V119H338.883V103.016C338.883 102 338.742 101.227 338.461 100.695C338.18 100.148 337.773 99.7734 337.242 99.5703C336.711 99.3672 336.062 99.2656 335.297 99.2656C334.484 99.2656 333.797 99.4219 333.234 99.7344C332.672 100.047 332.219 100.484 331.875 101.047C331.547 101.594 331.305 102.242 331.148 102.992C331.008 103.742 330.938 104.562 330.938 105.453ZM363.773 108.195H357.047C357.047 106.82 357.141 105.609 357.328 104.562C357.531 103.5 357.875 102.547 358.359 101.703C358.844 100.859 359.5 100.078 360.328 99.3594C361.062 98.75 361.695 98.1641 362.227 97.6016C362.758 97.0391 363.164 96.4688 363.445 95.8906C363.727 95.3125 363.867 94.6953 363.867 94.0391C363.867 93.2266 363.75 92.5625 363.516 92.0469C363.297 91.5312 362.961 91.1484 362.508 90.8984C362.07 90.6328 361.516 90.5 360.844 90.5C360.297 90.5 359.781 90.6328 359.297 90.8984C358.828 91.1641 358.445 91.5781 358.148 92.1406C357.852 92.6875 357.688 93.4141 357.656 94.3203H349.711C349.758 91.9922 350.273 90.1016 351.258 88.6484C352.258 87.1797 353.586 86.1094 355.242 85.4375C356.914 84.75 358.781 84.4062 360.844 84.4062C363.125 84.4062 365.086 84.7578 366.727 85.4609C368.367 86.1641 369.625 87.2109 370.5 88.6016C371.375 89.9766 371.812 91.6719 371.812 93.6875C371.812 95.0312 371.555 96.2031 371.039 97.2031C370.539 98.1875 369.859 99.1094 369 99.9688C368.156 100.812 367.211 101.719 366.164 102.688C365.258 103.484 364.641 104.297 364.312 105.125C363.984 105.938 363.805 106.961 363.773 108.195ZM356.086 115.32C356.086 114.195 356.492 113.258 357.305 112.508C358.117 111.742 359.172 111.359 360.469 111.359C361.766 111.359 362.82 111.742 363.633 112.508C364.445 113.258 364.852 114.195 364.852 115.32C364.852 116.445 364.445 117.391 363.633 118.156C362.82 118.906 361.766 119.281 360.469 119.281C359.172 119.281 358.117 118.906 357.305 118.156C356.492 117.391 356.086 116.445 356.086 115.32Z" fill="black"/>
<path d="M1134 0H1348C1356.28 0 1363 6.71573 1363 15V148C1363 156.284 1356.28 163 1348 163H1134V0Z" fill="#C8127F"/>
<path d="M1260.62 78.8078C1263.81 78.8078 1266.93 79.7552 1269.59 81.5302C1272.25 83.3052 1274.32 85.8281 1275.54 88.7798C1276.76 91.7315 1277.08 94.9795 1276.46 98.1131C1275.84 101.247 1274.3 104.125 1272.04 106.384C1269.78 108.643 1266.9 110.182 1263.77 110.805C1260.63 111.428 1257.39 111.108 1254.43 109.886C1251.48 108.663 1248.96 106.593 1247.18 103.936C1245.41 101.28 1244.46 98.1565 1244.46 94.9616C1244.46 90.6774 1246.16 86.5686 1249.19 83.5392C1252.22 80.5097 1256.33 78.8078 1260.62 78.8078ZM1260.62 73.4232C1256.36 73.4232 1252.19 74.6864 1248.65 77.0531C1245.11 79.4198 1242.35 82.7836 1240.72 86.7192C1239.09 90.6549 1238.66 94.9855 1239.49 99.1636C1240.32 103.342 1242.37 107.179 1245.39 110.192C1248.4 113.204 1252.24 115.255 1256.41 116.086C1260.59 116.917 1264.92 116.491 1268.86 114.861C1272.79 113.23 1276.16 110.47 1278.52 106.928C1280.89 103.386 1282.15 99.2215 1282.15 94.9616C1282.15 89.2493 1279.88 83.7709 1275.85 79.7317C1271.81 75.6924 1266.33 73.4232 1260.62 73.4232Z" fill="white"/>
<path d="M1274.08 46.4999H1220.23C1218.8 46.4999 1217.43 47.0672 1216.42 48.0771C1215.41 49.0869 1214.85 50.4565 1214.85 51.8845V105.731C1214.85 107.159 1215.41 108.528 1216.42 109.538C1217.43 110.548 1218.8 111.115 1220.23 111.115H1231V105.731H1220.23V68.0383H1279.46V51.8845C1279.46 50.4565 1278.89 49.0869 1277.88 48.0771C1276.87 47.0672 1275.5 46.4999 1274.08 46.4999ZM1220.23 62.6537V51.8845H1274.08V62.6537H1220.23Z" fill="white"/>
<path d="M1255.23 86.8848V103.039L1268.69 94.9617L1255.23 86.8848Z" fill="white"/>
</svg>
