<svg width="1363" height="163" viewBox="0 0 1363 163" fill="none" xmlns="http://www.w3.org/2000/svg">
<path d="M0 15C0 6.71573 6.71573 0 15 0H37V163H15C6.71573 163 0 156.284 0 148V15Z" fill="#181C7D"/>
<rect width="1097" height="163" transform="translate(37)" fill="#F0F0F0"/>
<path d="M101.906 53.9219L94.3945 51.2383V48.0859L104.602 52.375V54.6367L101.906 53.9219ZM94.3945 56.1719L101.918 53.4297L104.602 52.7852V55.0352L94.3945 59.3242V56.1719ZM119.836 46.8555L115.195 61H111.457L117.797 43.9375H120.176L119.836 46.8555ZM123.691 61L119.039 46.8555L118.664 43.9375H121.066L127.441 61H123.691ZM123.48 54.6484V57.4023H114.469V54.6484H123.48ZM135.668 57.4961C135.668 57.2539 135.598 57.0352 135.457 56.8398C135.316 56.6445 135.055 56.4648 134.672 56.3008C134.297 56.1289 133.754 55.9727 133.043 55.832C132.402 55.6914 131.805 55.5156 131.25 55.3047C130.703 55.0859 130.227 54.8242 129.82 54.5195C129.422 54.2148 129.109 53.8555 128.883 53.4414C128.656 53.0195 128.543 52.5391 128.543 52C128.543 51.4688 128.656 50.9688 128.883 50.5C129.117 50.0312 129.449 49.6172 129.879 49.2578C130.316 48.8906 130.848 48.6055 131.473 48.4023C132.105 48.1914 132.816 48.0859 133.605 48.0859C134.707 48.0859 135.652 48.2617 136.441 48.6133C137.238 48.9648 137.848 49.4492 138.27 50.0664C138.699 50.6758 138.914 51.3711 138.914 52.1523H135.539C135.539 51.8242 135.469 51.5312 135.328 51.2734C135.195 51.0078 134.984 50.8008 134.695 50.6523C134.414 50.4961 134.047 50.418 133.594 50.418C133.219 50.418 132.895 50.4844 132.621 50.6172C132.348 50.7422 132.137 50.9141 131.988 51.1328C131.848 51.3438 131.777 51.5781 131.777 51.8359C131.777 52.0312 131.816 52.207 131.895 52.3633C131.98 52.5117 132.117 52.6484 132.305 52.7734C132.492 52.8984 132.734 53.0156 133.031 53.125C133.336 53.2266 133.711 53.3203 134.156 53.4062C135.07 53.5938 135.887 53.8398 136.605 54.1445C137.324 54.4414 137.895 54.8477 138.316 55.3633C138.738 55.8711 138.949 56.5391 138.949 57.3672C138.949 57.9297 138.824 58.4453 138.574 58.9141C138.324 59.3828 137.965 59.793 137.496 60.1445C137.027 60.4883 136.465 60.7578 135.809 60.9531C135.16 61.1406 134.43 61.2344 133.617 61.2344C132.438 61.2344 131.438 61.0234 130.617 60.6016C129.805 60.1797 129.188 59.6445 128.766 58.9961C128.352 58.3398 128.145 57.668 128.145 56.9805H131.344C131.359 57.4414 131.477 57.8125 131.695 58.0938C131.922 58.375 132.207 58.5781 132.551 58.7031C132.902 58.8281 133.281 58.8906 133.688 58.8906C134.125 58.8906 134.488 58.832 134.777 58.7148C135.066 58.5898 135.285 58.4258 135.434 58.2227C135.59 58.0117 135.668 57.7695 135.668 57.4961ZM147.996 57.4961C147.996 57.2539 147.926 57.0352 147.785 56.8398C147.645 56.6445 147.383 56.4648 147 56.3008C146.625 56.1289 146.082 55.9727 145.371 55.832C144.73 55.6914 144.133 55.5156 143.578 55.3047C143.031 55.0859 142.555 54.8242 142.148 54.5195C141.75 54.2148 141.438 53.8555 141.211 53.4414C140.984 53.0195 140.871 52.5391 140.871 52C140.871 51.4688 140.984 50.9688 141.211 50.5C141.445 50.0312 141.777 49.6172 142.207 49.2578C142.645 48.8906 143.176 48.6055 143.801 48.4023C144.434 48.1914 145.145 48.0859 145.934 48.0859C147.035 48.0859 147.98 48.2617 148.77 48.6133C149.566 48.9648 150.176 49.4492 150.598 50.0664C151.027 50.6758 151.242 51.3711 151.242 52.1523H147.867C147.867 51.8242 147.797 51.5312 147.656 51.2734C147.523 51.0078 147.312 50.8008 147.023 50.6523C146.742 50.4961 146.375 50.418 145.922 50.418C145.547 50.418 145.223 50.4844 144.949 50.6172C144.676 50.7422 144.465 50.9141 144.316 51.1328C144.176 51.3438 144.105 51.5781 144.105 51.8359C144.105 52.0312 144.145 52.207 144.223 52.3633C144.309 52.5117 144.445 52.6484 144.633 52.7734C144.82 52.8984 145.062 53.0156 145.359 53.125C145.664 53.2266 146.039 53.3203 146.484 53.4062C147.398 53.5938 148.215 53.8398 148.934 54.1445C149.652 54.4414 150.223 54.8477 150.645 55.3633C151.066 55.8711 151.277 56.5391 151.277 57.3672C151.277 57.9297 151.152 58.4453 150.902 58.9141C150.652 59.3828 150.293 59.793 149.824 60.1445C149.355 60.4883 148.793 60.7578 148.137 60.9531C147.488 61.1406 146.758 61.2344 145.945 61.2344C144.766 61.2344 143.766 61.0234 142.945 60.6016C142.133 60.1797 141.516 59.6445 141.094 58.9961C140.68 58.3398 140.473 57.668 140.473 56.9805H143.672C143.688 57.4414 143.805 57.8125 144.023 58.0938C144.25 58.375 144.535 58.5781 144.879 58.7031C145.23 58.8281 145.609 58.8906 146.016 58.8906C146.453 58.8906 146.816 58.832 147.105 58.7148C147.395 58.5898 147.613 58.4258 147.762 58.2227C147.918 58.0117 147.996 57.7695 147.996 57.4961ZM160.969 57.9648V48.3203H164.344V61H161.168L160.969 57.9648ZM161.344 55.3633L162.34 55.3398C162.34 56.1836 162.242 56.9688 162.047 57.6953C161.852 58.4141 161.559 59.0391 161.168 59.5703C160.777 60.0938 160.285 60.5039 159.691 60.8008C159.098 61.0898 158.398 61.2344 157.594 61.2344C156.977 61.2344 156.406 61.1484 155.883 60.9766C155.367 60.7969 154.922 60.5195 154.547 60.1445C154.18 59.7617 153.891 59.2734 153.68 58.6797C153.477 58.0781 153.375 57.3555 153.375 56.5117V48.3203H156.75V56.5352C156.75 56.9102 156.793 57.2266 156.879 57.4844C156.973 57.7422 157.102 57.9531 157.266 58.1172C157.43 58.2812 157.621 58.3984 157.84 58.4688C158.066 58.5391 158.316 58.5742 158.59 58.5742C159.285 58.5742 159.832 58.4336 160.23 58.1523C160.637 57.8711 160.922 57.4883 161.086 57.0039C161.258 56.5117 161.344 55.9648 161.344 55.3633ZM170.297 51.0859V61H166.922V48.3203H170.098L170.297 51.0859ZM174.117 48.2383L174.059 51.3672C173.895 51.3438 173.695 51.3242 173.461 51.3086C173.234 51.2852 173.027 51.2734 172.84 51.2734C172.363 51.2734 171.949 51.3359 171.598 51.4609C171.254 51.5781 170.965 51.7539 170.73 51.9883C170.504 52.2227 170.332 52.5078 170.215 52.8438C170.105 53.1797 170.043 53.5625 170.027 53.9922L169.348 53.7812C169.348 52.9609 169.43 52.207 169.594 51.5195C169.758 50.8242 169.996 50.2188 170.309 49.7031C170.629 49.1875 171.02 48.7891 171.48 48.5078C171.941 48.2266 172.469 48.0859 173.062 48.0859C173.25 48.0859 173.441 48.1016 173.637 48.1328C173.832 48.1562 173.992 48.1914 174.117 48.2383ZM181.312 61.2344C180.328 61.2344 179.445 61.0781 178.664 60.7656C177.883 60.4453 177.219 60.0039 176.672 59.4414C176.133 58.8789 175.719 58.2266 175.43 57.4844C175.141 56.7344 174.996 55.9375 174.996 55.0938V54.625C174.996 53.6641 175.133 52.7852 175.406 51.9883C175.68 51.1914 176.07 50.5 176.578 49.9141C177.094 49.3281 177.719 48.8789 178.453 48.5664C179.188 48.2461 180.016 48.0859 180.938 48.0859C181.836 48.0859 182.633 48.2344 183.328 48.5312C184.023 48.8281 184.605 49.25 185.074 49.7969C185.551 50.3438 185.91 51 186.152 51.7656C186.395 52.5234 186.516 53.3672 186.516 54.2969V55.7031H176.438V53.4531H183.199V53.1953C183.199 52.7266 183.113 52.3086 182.941 51.9414C182.777 51.5664 182.527 51.2695 182.191 51.0508C181.855 50.832 181.426 50.7227 180.902 50.7227C180.457 50.7227 180.074 50.8203 179.754 51.0156C179.434 51.2109 179.172 51.4844 178.969 51.8359C178.773 52.1875 178.625 52.6016 178.523 53.0781C178.43 53.5469 178.383 54.0625 178.383 54.625V55.0938C178.383 55.6016 178.453 56.0703 178.594 56.5C178.742 56.9297 178.949 57.3008 179.215 57.6133C179.488 57.9258 179.816 58.168 180.199 58.3398C180.59 58.5117 181.031 58.5977 181.523 58.5977C182.133 58.5977 182.699 58.4805 183.223 58.2461C183.754 58.0039 184.211 57.6406 184.594 57.1562L186.234 58.9375C185.969 59.3203 185.605 59.6875 185.145 60.0391C184.691 60.3906 184.145 60.6797 183.504 60.9062C182.863 61.125 182.133 61.2344 181.312 61.2344ZM199.617 58.2578V61H191.027V58.2578H199.617ZM192.164 43.9375V61H188.648V43.9375H192.164ZM204.984 48.3203V61H201.598V48.3203H204.984ZM201.387 45.0156C201.387 44.5234 201.559 44.1172 201.902 43.7969C202.246 43.4766 202.707 43.3164 203.285 43.3164C203.855 43.3164 204.312 43.4766 204.656 43.7969C205.008 44.1172 205.184 44.5234 205.184 45.0156C205.184 45.5078 205.008 45.9141 204.656 46.2344C204.312 46.5547 203.855 46.7148 203.285 46.7148C202.707 46.7148 202.246 46.5547 201.902 46.2344C201.559 45.9141 201.387 45.5078 201.387 45.0156ZM211.078 51.0273V61H207.703V48.3203H210.867L211.078 51.0273ZM210.586 54.2148H209.672C209.672 53.2773 209.793 52.4336 210.035 51.6836C210.277 50.9258 210.617 50.2812 211.055 49.75C211.492 49.2109 212.012 48.8008 212.613 48.5195C213.223 48.2305 213.902 48.0859 214.652 48.0859C215.246 48.0859 215.789 48.1719 216.281 48.3438C216.773 48.5156 217.195 48.7891 217.547 49.1641C217.906 49.5391 218.18 50.0352 218.367 50.6523C218.562 51.2695 218.66 52.0234 218.66 52.9141V61H215.262V52.9023C215.262 52.3398 215.184 51.9023 215.027 51.5898C214.871 51.2773 214.641 51.0586 214.336 50.9336C214.039 50.8008 213.672 50.7344 213.234 50.7344C212.781 50.7344 212.387 50.8242 212.051 51.0039C211.723 51.1836 211.449 51.4336 211.23 51.7539C211.02 52.0664 210.859 52.4336 210.75 52.8555C210.641 53.2773 210.586 53.7305 210.586 54.2148ZM224.602 42.9883V61H221.227V42.9883H224.602ZM232.594 48.3203L227.086 54.6016L224.133 57.5898L222.902 55.1523L225.246 52.1758L228.539 48.3203H232.594ZM229.09 61L225.34 55.1406L227.672 53.1016L232.98 61H229.09Z" fill="#888888"/>
<path d="M112.125 84.875V119H103.898V84.875H112.125ZM122.391 84.875V91.2266H93.8672V84.875H122.391ZM135.68 119.469C133.617 119.469 131.773 119.148 130.148 118.508C128.523 117.852 127.148 116.953 126.023 115.812C124.914 114.672 124.062 113.359 123.469 111.875C122.891 110.391 122.602 108.82 122.602 107.164V106.273C122.602 104.414 122.859 102.695 123.375 101.117C123.891 99.5234 124.656 98.1328 125.672 96.9453C126.688 95.7578 127.961 94.8359 129.492 94.1797C131.023 93.5078 132.805 93.1719 134.836 93.1719C136.633 93.1719 138.242 93.4609 139.664 94.0391C141.086 94.6172 142.289 95.4453 143.273 96.5234C144.273 97.6016 145.031 98.9062 145.547 100.438C146.078 101.969 146.344 103.688 146.344 105.594V108.805H125.625V103.859H138.633V103.25C138.648 102.406 138.5 101.688 138.188 101.094C137.891 100.5 137.453 100.047 136.875 99.7344C136.297 99.4219 135.594 99.2656 134.766 99.2656C133.906 99.2656 133.195 99.4531 132.633 99.8281C132.086 100.203 131.656 100.719 131.344 101.375C131.047 102.016 130.836 102.758 130.711 103.602C130.586 104.445 130.523 105.336 130.523 106.273V107.164C130.523 108.102 130.648 108.953 130.898 109.719C131.164 110.484 131.539 111.141 132.023 111.688C132.523 112.219 133.117 112.633 133.805 112.93C134.508 113.227 135.305 113.375 136.195 113.375C137.273 113.375 138.336 113.172 139.383 112.766C140.43 112.359 141.328 111.688 142.078 110.75L145.664 115.016C145.148 115.75 144.414 116.461 143.461 117.148C142.523 117.836 141.398 118.398 140.086 118.836C138.773 119.258 137.305 119.469 135.68 119.469ZM160.266 113.375C161 113.375 161.625 113.242 162.141 112.977C162.672 112.695 163.07 112.305 163.336 111.805C163.617 111.289 163.75 110.672 163.734 109.953H171.164C171.18 111.859 170.711 113.531 169.758 114.969C168.82 116.391 167.539 117.5 165.914 118.297C164.305 119.078 162.484 119.469 160.453 119.469C158.469 119.469 156.734 119.148 155.25 118.508C153.766 117.852 152.523 116.945 151.523 115.789C150.539 114.617 149.797 113.25 149.297 111.688C148.812 110.125 148.57 108.43 148.57 106.602V106.062C148.57 104.234 148.812 102.539 149.297 100.977C149.797 99.3984 150.539 98.0312 151.523 96.875C152.523 95.7031 153.758 94.7969 155.227 94.1562C156.711 93.5 158.438 93.1719 160.406 93.1719C162.516 93.1719 164.375 93.5703 165.984 94.3672C167.609 95.1641 168.883 96.3203 169.805 97.8359C170.727 99.3516 171.18 101.188 171.164 103.344H163.734C163.75 102.578 163.633 101.891 163.383 101.281C163.133 100.672 162.742 100.188 162.211 99.8281C161.695 99.4531 161.031 99.2656 160.219 99.2656C159.406 99.2656 158.75 99.4453 158.25 99.8047C157.75 100.164 157.367 100.664 157.102 101.305C156.852 101.93 156.68 102.648 156.586 103.461C156.508 104.273 156.469 105.141 156.469 106.062V106.602C156.469 107.539 156.508 108.422 156.586 109.25C156.68 110.062 156.859 110.781 157.125 111.406C157.391 112.016 157.773 112.5 158.273 112.859C158.773 113.203 159.438 113.375 160.266 113.375ZM182.273 83V119H174.375V83H182.273ZM181.336 105.453L179.484 105.5C179.484 103.719 179.703 102.078 180.141 100.578C180.578 99.0781 181.203 97.7734 182.016 96.6641C182.828 95.5547 183.805 94.6953 184.945 94.0859C186.086 93.4766 187.352 93.1719 188.742 93.1719C189.992 93.1719 191.133 93.3516 192.164 93.7109C193.211 94.0703 194.109 94.6484 194.859 95.4453C195.625 96.2422 196.211 97.2812 196.617 98.5625C197.039 99.8438 197.25 101.406 197.25 103.25V119H189.305V103.203C189.305 102.172 189.156 101.375 188.859 100.812C188.578 100.234 188.172 99.8359 187.641 99.6172C187.109 99.3828 186.461 99.2656 185.695 99.2656C184.773 99.2656 184.023 99.4219 183.445 99.7344C182.867 100.047 182.422 100.484 182.109 101.047C181.812 101.594 181.609 102.242 181.5 102.992C181.391 103.742 181.336 104.562 181.336 105.453ZM231.539 109.93C231.539 109.398 231.461 108.922 231.305 108.5C231.148 108.062 230.859 107.656 230.438 107.281C230.016 106.906 229.406 106.531 228.609 106.156C227.828 105.766 226.797 105.359 225.516 104.938C224.016 104.438 222.57 103.875 221.18 103.25C219.789 102.609 218.547 101.867 217.453 101.023C216.359 100.164 215.492 99.1641 214.852 98.0234C214.211 96.8672 213.891 95.5234 213.891 93.9922C213.891 92.5234 214.219 91.2031 214.875 90.0312C215.531 88.8438 216.445 87.8359 217.617 87.0078C218.805 86.1641 220.195 85.5234 221.789 85.0859C223.383 84.6328 225.125 84.4062 227.016 84.4062C229.516 84.4062 231.719 84.8438 233.625 85.7188C235.547 86.5781 237.047 87.8047 238.125 89.3984C239.219 90.9766 239.766 92.8438 239.766 95H231.586C231.586 94.1406 231.406 93.3828 231.047 92.7266C230.703 92.0703 230.18 91.5547 229.477 91.1797C228.773 90.8047 227.891 90.6172 226.828 90.6172C225.797 90.6172 224.93 90.7734 224.227 91.0859C223.523 91.3984 222.992 91.8203 222.633 92.3516C222.273 92.8672 222.094 93.4375 222.094 94.0625C222.094 94.5781 222.234 95.0469 222.516 95.4688C222.812 95.875 223.227 96.2578 223.758 96.6172C224.305 96.9766 224.961 97.3203 225.727 97.6484C226.508 97.9766 227.383 98.2969 228.352 98.6094C230.164 99.1875 231.773 99.8359 233.18 100.555C234.602 101.258 235.797 102.062 236.766 102.969C237.75 103.859 238.492 104.875 238.992 106.016C239.508 107.156 239.766 108.445 239.766 109.883C239.766 111.414 239.469 112.773 238.875 113.961C238.281 115.148 237.43 116.156 236.32 116.984C235.211 117.797 233.883 118.414 232.336 118.836C230.789 119.258 229.062 119.469 227.156 119.469C225.406 119.469 223.68 119.25 221.977 118.812C220.289 118.359 218.758 117.672 217.383 116.75C216.008 115.812 214.906 114.617 214.078 113.164C213.266 111.695 212.859 109.953 212.859 107.938H221.109C221.109 108.938 221.242 109.781 221.508 110.469C221.773 111.156 222.164 111.711 222.68 112.133C223.195 112.539 223.828 112.836 224.578 113.023C225.328 113.195 226.188 113.281 227.156 113.281C228.203 113.281 229.047 113.133 229.688 112.836C230.328 112.523 230.797 112.117 231.094 111.617C231.391 111.102 231.539 110.539 231.539 109.93ZM256.992 93.6406V99.125H241.711V93.6406H256.992ZM244.922 87.3359H252.82V110.727C252.82 111.398 252.898 111.922 253.055 112.297C253.211 112.656 253.477 112.914 253.852 113.07C254.242 113.211 254.758 113.281 255.398 113.281C255.852 113.281 256.227 113.273 256.523 113.258C256.82 113.227 257.102 113.188 257.367 113.141V118.789C256.695 119.008 255.992 119.172 255.258 119.281C254.523 119.406 253.742 119.469 252.914 119.469C251.227 119.469 249.781 119.203 248.578 118.672C247.391 118.141 246.484 117.305 245.859 116.164C245.234 115.023 244.922 113.539 244.922 111.711V87.3359ZM273.305 112.625V102.172C273.305 101.453 273.203 100.836 273 100.32C272.797 99.8047 272.477 99.4062 272.039 99.125C271.602 98.8281 271.016 98.6797 270.281 98.6797C269.688 98.6797 269.18 98.7812 268.758 98.9844C268.336 99.1875 268.016 99.4922 267.797 99.8984C267.578 100.305 267.469 100.82 267.469 101.445H259.57C259.57 100.273 259.828 99.1875 260.344 98.1875C260.875 97.1719 261.625 96.2891 262.594 95.5391C263.578 94.7891 264.75 94.2109 266.109 93.8047C267.484 93.3828 269.016 93.1719 270.703 93.1719C272.719 93.1719 274.516 93.5078 276.094 94.1797C277.688 94.8516 278.945 95.8594 279.867 97.2031C280.789 98.5312 281.25 100.203 281.25 102.219V112.602C281.25 114.258 281.344 115.516 281.531 116.375C281.719 117.219 281.984 117.961 282.328 118.602V119H274.406C274.031 118.219 273.75 117.266 273.562 116.141C273.391 115 273.305 113.828 273.305 112.625ZM274.266 103.508L274.312 107.727H270.82C270.086 107.727 269.461 107.828 268.945 108.031C268.445 108.234 268.039 108.516 267.727 108.875C267.43 109.219 267.211 109.609 267.07 110.047C266.945 110.484 266.883 110.945 266.883 111.43C266.883 111.898 266.992 112.32 267.211 112.695C267.445 113.055 267.758 113.336 268.148 113.539C268.539 113.742 268.977 113.844 269.461 113.844C270.336 113.844 271.078 113.68 271.688 113.352C272.312 113.008 272.789 112.594 273.117 112.109C273.445 111.625 273.609 111.172 273.609 110.75L275.344 113.984C275.031 114.609 274.672 115.242 274.266 115.883C273.875 116.523 273.383 117.117 272.789 117.664C272.211 118.195 271.5 118.633 270.656 118.977C269.812 119.305 268.789 119.469 267.586 119.469C266.023 119.469 264.586 119.148 263.273 118.508C261.977 117.867 260.938 116.977 260.156 115.836C259.375 114.68 258.984 113.352 258.984 111.852C258.984 110.539 259.219 109.367 259.688 108.336C260.172 107.305 260.898 106.43 261.867 105.711C262.836 104.992 264.07 104.445 265.57 104.07C267.07 103.695 268.836 103.508 270.867 103.508H274.266ZM296.344 113.375C297.078 113.375 297.703 113.242 298.219 112.977C298.75 112.695 299.148 112.305 299.414 111.805C299.695 111.289 299.828 110.672 299.812 109.953H307.242C307.258 111.859 306.789 113.531 305.836 114.969C304.898 116.391 303.617 117.5 301.992 118.297C300.383 119.078 298.562 119.469 296.531 119.469C294.547 119.469 292.812 119.148 291.328 118.508C289.844 117.852 288.602 116.945 287.602 115.789C286.617 114.617 285.875 113.25 285.375 111.688C284.891 110.125 284.648 108.43 284.648 106.602V106.062C284.648 104.234 284.891 102.539 285.375 100.977C285.875 99.3984 286.617 98.0312 287.602 96.875C288.602 95.7031 289.836 94.7969 291.305 94.1562C292.789 93.5 294.516 93.1719 296.484 93.1719C298.594 93.1719 300.453 93.5703 302.062 94.3672C303.688 95.1641 304.961 96.3203 305.883 97.8359C306.805 99.3516 307.258 101.188 307.242 103.344H299.812C299.828 102.578 299.711 101.891 299.461 101.281C299.211 100.672 298.82 100.188 298.289 99.8281C297.773 99.4531 297.109 99.2656 296.297 99.2656C295.484 99.2656 294.828 99.4453 294.328 99.8047C293.828 100.164 293.445 100.664 293.18 101.305C292.93 101.93 292.758 102.648 292.664 103.461C292.586 104.273 292.547 105.141 292.547 106.062V106.602C292.547 107.539 292.586 108.422 292.664 109.25C292.758 110.062 292.938 110.781 293.203 111.406C293.469 112.016 293.852 112.5 294.352 112.859C294.852 113.203 295.516 113.375 296.344 113.375ZM318.586 82.9766V119H310.688V82.9766H318.586ZM334.805 93.6406L323.789 106.555L318.023 112.32L314.578 107.305L319.383 101.047L325.336 93.6406H334.805ZM326.344 119L319.57 107.445L325.406 103.297L335.391 119H326.344Z" fill="black"/>
<path d="M1134 0H1348C1356.28 0 1363 6.71573 1363 15V148C1363 156.284 1356.28 163 1348 163H1134V0Z" fill="#C8127F"/>
<path fill-rule="evenodd" clip-rule="evenodd" d="M1218.75 53C1218.62 53 1218.49 53.0527 1218.4 53.1464C1218.3 53.2402 1218.25 53.3674 1218.25 53.5V109.5C1218.25 109.633 1218.3 109.76 1218.4 109.854C1218.49 109.947 1218.62 110 1218.75 110H1278.25C1278.38 110 1278.51 109.947 1278.6 109.854C1278.7 109.76 1278.75 109.633 1278.75 109.5V64C1278.75 63.8674 1278.7 63.7402 1278.6 63.6464C1278.51 63.5527 1278.38 63.5 1278.25 63.5H1248.5C1247.61 63.5 1246.77 63.1045 1246.2 62.4206L1238.34 53H1218.75ZM1214.15 48.9038C1215.37 47.6848 1217.03 47 1218.75 47H1239.75C1240.64 47 1241.48 47.3955 1242.05 48.0794L1249.91 57.5H1278.25C1279.97 57.5 1281.63 58.1848 1282.85 59.4038C1284.07 60.6228 1284.75 62.2761 1284.75 64V109.5C1284.75 111.224 1284.07 112.877 1282.85 114.096C1281.63 115.315 1279.97 116 1278.25 116H1218.75C1217.03 116 1215.37 115.315 1214.15 114.096C1212.93 112.877 1212.25 111.224 1212.25 109.5V53.5C1212.25 51.7761 1212.93 50.1228 1214.15 48.9038Z" fill="white"/>
<path fill-rule="evenodd" clip-rule="evenodd" d="M1243.97 75.5251C1245.34 76.892 1245.34 79.108 1243.97 80.4749L1237.7 86.75L1243.97 93.0251C1245.34 94.392 1245.34 96.608 1243.97 97.9749C1242.61 99.3417 1240.39 99.3417 1239.03 97.9749L1230.28 89.2249C1228.91 87.858 1228.91 85.642 1230.28 84.2751L1239.03 75.5251C1240.39 74.1583 1242.61 74.1583 1243.97 75.5251Z" fill="white"/>
<path fill-rule="evenodd" clip-rule="evenodd" d="M1252.28 97.9749C1250.91 96.608 1250.91 94.392 1252.28 93.0251L1258.55 86.75L1252.28 80.4749C1250.91 79.108 1250.91 76.892 1252.28 75.5251C1253.64 74.1583 1255.86 74.1583 1257.22 75.5251L1265.97 84.2751C1267.34 85.642 1267.34 87.858 1265.97 89.2249L1257.22 97.9749C1255.86 99.3417 1253.64 99.3417 1252.28 97.9749Z" fill="white"/>
</svg>
